<?xml version="1.0" standalone="no"?>
<!DOCTYPE svg PUBLIC "-//W3C//DTD SVG 20010904//EN"
 "http://www.w3.org/TR/2001/REC-SVG-20010904/DTD/svg10.dtd">
<svg version="1.0" xmlns="http://www.w3.org/2000/svg"
 width="320.000000pt" height="158.000000pt" viewBox="0 0 320.000000 158.000000"
 preserveAspectRatio="xMidYMid meet">

<g transform="translate(0.000000,158.000000) scale(0.100000,-0.100000)"
fill="#000000" stroke="none">
<path d="M1530 991 c0 -47 4 -81 10 -81 6 0 10 14 10 30 0 27 3 30 30 30 20 0
30 5 30 15 0 10 -10 15 -30 15 -23 0 -30 4 -30 20 0 17 7 20 46 20 65 0 53 24
-14 28 l-52 3 0 -80z"/>
<path d="M1684 1035 c-7 -19 -21 -51 -29 -71 -8 -20 -15 -40 -15 -45 0 -5 7
-9 15 -9 8 0 15 5 15 10 0 14 73 13 87 -1 6 -6 16 -10 21 -8 14 6 -48 159 -65
159 -8 0 -21 -16 -29 -35z m34 -73 c-27 -5 -30 1 -17 34 l11 29 13 -30 c12
-27 12 -30 -7 -33z"/>
<path d="M1832 1054 c-40 -28 -26 -64 31 -78 29 -7 36 -30 11 -40 -8 -3 -24
-1 -34 4 -13 7 -21 7 -26 -1 -9 -15 15 -29 52 -29 35 0 54 16 54 46 0 26 -15
39 -53 48 -37 9 -29 31 11 31 41 0 50 12 18 25 -35 13 -37 13 -64 -6z"/>
<path d="M1957 1063 c-4 -3 -7 -39 -7 -80 0 -58 3 -73 15 -73 10 0 15 10 15
30 0 28 2 30 40 30 38 0 40 -2 40 -30 0 -20 5 -30 15 -30 12 0 15 16 15 80 0
64 -3 80 -15 80 -10 0 -15 -11 -15 -35 0 -34 -1 -35 -40 -35 -39 0 -40 1 -40
35 0 33 -8 43 -23 28z"/>
<path d="M2130 990 c0 -64 3 -80 15 -80 12 0 15 16 15 80 0 64 -3 80 -15 80
-12 0 -15 -16 -15 -80z"/>
<path d="M2230 1057 c-77 -39 -51 -147 36 -147 44 0 74 30 74 74 0 61 -58 100
-110 73z m61 -27 c37 -20 16 -100 -27 -100 -17 0 -54 36 -54 53 0 20 30 57 46
57 9 0 24 -5 35 -10z"/>
<path d="M2370 992 c0 -66 3 -82 15 -82 11 0 15 12 15 47 l0 47 48 -47 c26
-26 51 -47 55 -47 4 0 7 36 7 80 0 64 -3 80 -15 80 -11 0 -15 -12 -15 -52 l0
-52 -55 54 -55 54 0 -82z"/>
<path d="M1035 861 l-140 -37 0 -148 0 -148 102 -70 103 -70 155 52 155 52 0
146 0 147 -104 58 c-56 31 -109 56 -117 56 -8 -1 -77 -18 -154 -38z"/>
<path d="M1530 780 c0 -47 4 -80 10 -80 6 0 10 14 10 30 0 28 2 30 40 30 38 0
40 -2 40 -30 0 -20 5 -30 15 -30 12 0 15 16 15 81 0 60 -3 80 -12 77 -7 -3
-14 -19 -16 -36 -3 -30 -6 -32 -43 -32 -38 0 -39 1 -39 35 0 19 -4 35 -10 35
-6 0 -10 -33 -10 -80z"/>
<path d="M1873 845 c-9 -24 2 -112 17 -130 16 -20 84 -20 104 1 22 22 23 144
1 144 -12 0 -15 -13 -15 -60 0 -62 -15 -84 -50 -72 -24 8 -30 24 -30 80 0 50
-14 69 -27 37z"/>
<path d="M2069 846 c-46 -23 -33 -69 22 -80 22 -4 30 -11 27 -23 -3 -17 -23
-21 -58 -12 -8 2 -15 -3 -15 -11 0 -19 70 -26 91 -9 8 7 14 24 12 38 -2 20
-11 29 -38 37 -44 14 -47 39 -5 39 17 0 31 5 32 10 4 16 -43 24 -68 11z"/>
<path d="M2187 853 c-4 -3 -7 -39 -7 -80 l0 -73 60 0 c33 0 60 4 60 10 0 6
-20 10 -45 10 -38 0 -45 3 -45 20 0 16 7 20 35 20 24 0 35 5 35 15 0 10 -11
15 -35 15 -28 0 -35 4 -35 20 0 17 7 20 45 20 33 0 45 4 45 15 0 11 -13 15
-53 15 -30 0 -57 -3 -60 -7z"/>
<path d="M1711 824 c-12 -15 -21 -37 -21 -49 0 -12 9 -34 21 -49 16 -20 29
-26 59 -26 30 0 43 6 59 26 12 15 21 37 21 49 0 12 -9 34 -21 49 -29 37 -89
37 -118 0z m91 -11 c22 -20 23 -51 1 -75 -20 -22 -41 -23 -65 -1 -22 20 -23
51 -1 75 20 22 41 23 65 1z"/>
<path d="M1549 621 c-50 -40 -18 -131 46 -131 43 0 55 10 55 46 0 29 -4 34
-22 34 -17 0 -19 -3 -10 -9 21 -13 10 -46 -16 -49 -13 -2 -32 4 -43 14 -42 38
-7 102 50 91 35 -7 51 8 18 17 -37 10 -54 7 -78 -13z"/>
<path d="M1698 565 c-2 -41 0 -75 5 -75 4 0 7 14 7 30 0 39 27 51 49 23 9 -11
21 -29 27 -39 7 -11 15 -16 19 -12 4 4 0 19 -9 34 -16 23 -16 27 -2 43 35 39
12 71 -50 71 l-42 0 -4 -75z m92 35 c0 -13 -9 -22 -25 -26 -34 -8 -55 1 -55
26 0 17 6 20 40 20 33 0 40 -3 40 -20z"/>
<path d="M1866 619 c-53 -41 -18 -129 51 -129 32 0 73 42 73 75 0 33 -41 75
-73 75 -13 0 -36 -9 -51 -21z m86 -16 c22 -20 23 -51 1 -75 -22 -24 -69 -24
-83 1 -33 63 30 121 82 74z"/>
<path d="M2020 585 c0 -42 5 -60 20 -75 24 -24 57 -26 88 -4 19 13 22 24 22
75 0 33 -4 59 -10 59 -5 0 -10 -24 -10 -53 0 -57 -12 -77 -45 -77 -33 0 -45
20 -45 77 0 29 -4 53 -10 53 -5 0 -10 -25 -10 -55z"/>
<path d="M2200 565 c0 -43 4 -75 10 -75 6 0 10 15 10 34 0 34 1 35 43 38 35 3
43 7 45 26 5 35 -15 52 -64 52 l-44 0 0 -75z m88 33 c-2 -18 -11 -24 -35 -26
-30 -3 -33 -1 -33 22 0 23 4 26 36 26 31 0 35 -3 32 -22z"/>
</g>
</svg>
