<?xml version="1.0" standalone="no"?>
<!DOCTYPE svg PUBLIC "-//W3C//DTD SVG 20010904//EN"
 "http://www.w3.org/TR/2001/REC-SVG-20010904/DTD/svg10.dtd">
<svg version="1.0" xmlns="http://www.w3.org/2000/svg"
 width="250.000000pt" height="250.000000pt" viewBox="0 0 250.000000 250.000000"
 preserveAspectRatio="xMidYMid meet">

<g transform="translate(0.000000,250.000000) scale(0.100000,-0.100000)"
fill="#000000" stroke="none">
<path d="M1170 2204 c-243 -28 -434 -117 -596 -278 -185 -185 -277 -411 -277
-676 0 -265 92 -491 277 -676 185 -185 411 -277 676 -277 265 0 491 92 676
277 185 185 277 411 277 676 0 265 -92 491 -277 676 -135 135 -292 220 -476
259 -71 15 -225 25 -280 19z m330 -43 c315 -91 571 -348 662 -666 20 -69 23
-103 23 -245 0 -142 -3 -176 -23 -245 -91 -320 -347 -576 -667 -667 -69 -20
-103 -23 -245 -23 -192 0 -264 15 -415 90 -238 117 -423 341 -497 600 -20 69
-23 103 -23 245 0 142 3 176 23 245 97 341 374 602 718 679 102 23 344 16 444
-13z"/>
<path d="M1055 2153 c-352 -75 -636 -362 -709 -715 -21 -99 -21 -277 0 -376
73 -356 360 -643 716 -716 99 -21 277 -21 376 0 356 73 643 360 716 716 21 99
21 277 0 376 -73 356 -360 643 -716 716 -97 20 -288 20 -383 -1z m213 -103
c19 -43 37 -70 46 -70 9 0 16 1 16 3 0 2 5 30 11 62 8 46 8 60 -3 67 -8 6 5 7
37 3 56 -8 75 -19 75 -46 0 -20 -28 -39 -57 -38 -14 0 -13 2 5 10 30 12 27 53
-4 57 -20 3 -23 -3 -29 -57 -4 -33 -3 -65 1 -72 5 -9 2 -10 -10 -6 -10 4 -39
7 -64 7 -28 0 -42 4 -34 8 23 15 2 42 -33 42 -24 0 -34 -5 -38 -20 -3 -11 0
-21 6 -21 7 -1 -6 -5 -28 -9 -31 -6 -44 -4 -60 9 -51 43 -55 45 -55 23 0 -11
7 -27 15 -35 13 -13 13 -16 -1 -21 -18 -7 -55 -7 -38 0 14 6 -12 127 -29 133
-7 3 10 10 38 17 35 9 53 10 62 2 16 -13 17 -40 1 -57 -11 -10 -7 -17 15 -37
15 -13 33 -24 40 -24 7 0 25 32 40 70 16 39 32 70 36 70 5 0 22 -31 39 -70z
m248 -1 c4 -21 9 -39 11 -39 2 0 20 12 39 26 45 35 44 17 -2 -19 -42 -34 -61
-76 -42 -89 16 -11 -30 0 -52 13 -13 7 -12 8 2 9 29 0 35 73 11 136 -4 10 0
12 11 8 9 -4 19 -23 22 -45z m-552 6 c4 -12 0 -14 -17 -10 -32 7 -51 -8 -42
-34 8 -26 52 -26 47 -1 -1 10 3 9 13 -4 19 -25 19 -37 0 -30 -8 4 -22 4 -30 0
-12 -4 -13 -10 -3 -31 6 -14 16 -25 23 -25 15 0 42 22 48 40 3 10 6 7 6 -8 1
-18 -9 -27 -46 -42 -27 -11 -61 -27 -77 -37 -16 -9 -26 -12 -23 -7 3 5 -3 20
-12 33 -18 24 -18 24 -50 5 -17 -10 -31 -23 -31 -30 0 -15 35 -46 43 -37 4 3
7 2 7 -3 0 -5 -13 -18 -27 -28 -21 -15 -25 -16 -21 -4 9 22 -59 114 -80 110
-12 -2 -10 3 8 17 27 22 45 28 35 11 -3 -5 0 -19 7 -29 14 -19 14 -19 46 1 18
11 32 23 32 26 -1 18 -30 43 -42 37 -7 -3 -2 3 11 14 24 22 47 28 36 11 -6
-10 53 -109 65 -110 3 0 11 4 18 9 17 11 -26 121 -48 121 -16 1 68 49 86 50 7
0 14 -7 18 -15z m767 -151 c-15 -78 -14 -87 5 -80 10 4 14 2 11 -6 -7 -21 12
-48 34 -48 27 0 34 24 15 52 -23 32 -20 57 8 69 44 20 104 -34 69 -62 -15 -12
-16 -12 -10 5 9 23 -9 46 -34 46 -23 0 -25 -27 -3 -58 18 -26 11 -59 -15 -67
-25 -8 -68 10 -81 34 -6 11 -23 27 -38 35 -19 11 -22 15 -9 16 26 0 21 37 -8
56 -20 13 -28 14 -40 4 -8 -7 -12 -17 -9 -22 4 -6 -4 -4 -17 3 -18 9 -20 14
-10 17 8 3 42 22 75 43 34 21 62 34 64 29 2 -5 -2 -35 -7 -66z m-491 1 c0 -8
-9 -15 -20 -15 -20 0 -26 11 -13 23 12 13 33 7 33 -8z m68 -2 c2 -8 -5 -13
-17 -13 -12 0 -21 6 -21 16 0 18 31 15 38 -3z m-134 -2 c3 -5 -1 -12 -10 -15
-25 -10 -34 -7 -34 9 0 16 35 21 44 6z m204 -9 c3 -9 -3 -13 -19 -10 -12 1
-24 9 -27 16 -3 9 3 13 19 10 12 -1 24 -9 27 -16z m-697 -9 c12 -15 12 -16 -3
-10 -9 3 -21 0 -27 -7 -8 -9 1 -24 33 -55 24 -24 49 -40 55 -37 19 12 12 -10
-9 -29 -16 -14 -20 -15 -20 -4 0 19 -87 92 -100 84 -6 -4 -8 -16 -4 -28 6 -21
5 -21 -12 -5 -18 17 -17 20 26 63 24 25 45 45 46 45 1 0 8 -8 15 -17z m420 2
c0 -13 -41 -19 -41 -7 0 11 20 22 33 18 5 -1 8 -6 8 -11z m346 -9 c-2 -6 -13
-9 -23 -8 -24 5 -27 8 -20 20 8 14 48 2 43 -12z m-422 -22 c-18 -13 -35 -10
-35 6 0 10 31 19 44 12 5 -3 1 -11 -9 -18z m490 5 c8 -12 -11 -20 -29 -13 -24
9 -20 33 4 27 11 -3 23 -9 25 -14z m-98 -11 c23 -7 45 -17 49 -21 4 -4 18 -7
31 -7 12 0 23 -4 23 -9 0 -5 9 -13 21 -16 22 -7 72 -39 102 -65 37 -33 83 -78
92 -93 6 -8 25 -36 43 -61 17 -26 32 -53 32 -60 0 -7 3 -16 7 -20 11 -10 33
-79 33 -103 0 -12 4 -24 9 -27 11 -7 11 -225 0 -232 -5 -3 -9 -16 -9 -29 0
-40 -70 -193 -102 -222 -10 -9 -18 -20 -18 -24 0 -7 -39 -47 -87 -89 -30 -26
-80 -58 -102 -65 -12 -3 -21 -11 -21 -16 0 -5 -10 -9 -23 -9 -13 0 -27 -4 -33
-9 -13 -11 -88 -30 -159 -39 -54 -7 -176 4 -215 20 -8 3 -35 11 -60 19 -25 7
-52 19 -61 26 -8 7 -18 13 -22 13 -7 0 -63 37 -91 60 -61 50 -166 185 -166
213 0 7 -4 17 -9 22 -5 6 -17 39 -27 75 -18 67 -27 257 -13 295 4 11 13 40 20
65 8 25 24 63 36 85 13 22 27 49 32 60 5 12 16 27 25 34 9 7 16 17 16 22 0 5
16 23 36 41 20 18 46 42 57 53 25 23 43 34 107 65 25 12 54 26 65 33 64 36
287 45 382 15z m-447 -12 c0 -7 -9 -16 -20 -19 -22 -6 -29 18 -7 26 21 9 27 7
27 -7z m610 -16 c0 -6 -6 -10 -14 -10 -16 0 -38 24 -30 33 9 8 44 -11 44 -23z
m-670 -20 c0 -12 -28 -25 -36 -17 -9 9 6 27 22 27 8 0 14 -5 14 -10z m719 -3
c6 -8 8 -17 5 -20 -10 -9 -45 13 -39 24 9 13 21 11 34 -4z m309 -3 c24 -16 29
-48 10 -60 -8 -5 -9 -2 -5 11 9 22 -9 45 -34 45 -22 0 -23 -11 -7 -56 9 -26 9
-36 -1 -48 -20 -23 -54 -19 -81 8 -22 24 -22 56 0 56 6 0 8 -5 5 -10 -12 -20
6 -50 31 -50 27 0 29 9 12 58 -11 30 -11 35 7 48 24 18 35 18 63 -2z m-1088
-33 c0 -5 -6 -14 -14 -20 -11 -9 -16 -9 -21 0 -4 6 -1 15 6 20 18 11 29 11 29
0z m840 -17 c0 -8 -4 -14 -9 -14 -12 0 -32 26 -25 33 10 9 34 -4 34 -19z
m-1145 -24 c3 -5 0 -10 -7 -10 -7 0 -19 -9 -25 -20 -11 -16 -9 -21 10 -35 20
-14 23 -14 34 1 6 9 9 23 6 31 -5 13 -3 13 14 3 20 -13 20 -13 0 -33 -19 -19
-19 -20 -2 -34 27 -19 40 -16 53 11 7 17 7 27 -1 35 -6 6 -7 11 -1 11 6 0 15
-5 21 -11 8 -8 3 -24 -19 -60 -29 -48 -40 -60 -36 -38 4 15 -91 72 -108 65
-19 -7 -18 -1 12 50 26 44 38 52 49 34z m245 -25 c-9 -11 -16 -13 -23 -6 -7 7
-6 15 3 26 9 11 16 13 23 6 7 -7 6 -15 -3 -26z m949 11 c9 -10 9 -16 1 -21
-13 -8 -42 14 -34 26 8 13 20 11 33 -5z m263 -17 c29 -15 50 -72 38 -103 -29
-76 -160 -51 -160 32 0 60 68 100 122 71z m-1252 -33 c0 -18 -17 -29 -30 -21
-8 5 -7 11 1 21 15 18 29 18 29 0z m1033 -27 c-8 -8 -14 -6 -22 9 -6 10 -7 22
-4 26 4 4 14 0 22 -9 11 -11 12 -18 4 -26z m-1073 -27 c-1 -17 -19 -34 -29
-28 -8 5 -8 13 -1 27 10 18 30 18 30 1z m-180 -37 c33 -10 59 -23 57 -29 -2
-6 -34 -22 -70 -36 -37 -14 -67 -28 -67 -31 0 -11 88 -32 100 -24 8 5 10 2 7
-11 -8 -25 -20 -94 -22 -119 -1 -11 -2 -37 -3 -57 -2 -36 -2 -37 -34 -27 -47
13 -105 11 -111 -3 -3 -7 -5 5 -5 27 0 22 2 32 5 23 4 -15 16 -18 69 -18 63 0
64 0 64 28 0 15 -5 33 -12 40 -9 9 -8 12 5 12 9 0 17 4 17 9 0 5 -28 14 -62
20 -48 8 -64 8 -70 -2 -5 -7 -8 1 -8 21 0 17 5 32 10 32 6 0 10 -4 10 -9 0 -5
25 -13 55 -16 68 -9 70 -9 70 12 0 18 -99 57 -122 48 -7 -2 -13 -1 -13 3 1 18
20 31 78 52 34 13 65 26 67 30 6 10 -81 34 -94 25 -12 -7 -14 5 -5 30 6 14 8
15 15 3 4 -8 35 -23 69 -33z m1290 30 c6 -8 8 -20 4 -26 -5 -9 -11 -7 -21 6
-23 33 -9 51 17 20z m-1147 -65 c-3 -11 -12 -20 -19 -20 -16 0 -16 2 -8 24 9
24 33 20 27 -4z m1182 -1 c8 -23 1 -34 -14 -24 -13 8 -15 45 -2 45 5 0 13 -9
16 -21z m222 -11 c17 -13 36 -76 29 -93 -3 -8 -13 -15 -23 -14 -11 0 -13 3 -5
6 17 7 15 59 -4 77 -22 22 -70 20 -94 -4 -24 -24 -26 -58 -3 -89 12 -18 13
-23 2 -19 -8 3 -20 21 -27 40 -12 30 -12 41 0 64 23 49 86 65 125 32z m-1433
-61 c-3 -9 -10 -17 -15 -17 -11 0 -12 34 -2 44 11 11 24 -9 17 -27z m1240 7
c8 -22 8 -24 -8 -24 -15 0 -28 24 -19 34 11 10 21 7 27 -10z m-1254 -53 c0
-17 -12 -41 -21 -41 -5 0 -9 11 -9 25 0 16 6 25 15 25 8 0 15 -4 15 -9z m1270
-21 c0 -11 -4 -20 -10 -20 -5 0 -10 2 -10 4 0 2 -3 11 -6 20 -4 11 -1 16 10
16 9 0 16 -8 16 -20z m219 -32 c0 -18 -3 -28 -5 -22 -3 7 -24 8 -66 2 -34 -4
-63 -10 -65 -12 -13 -12 18 -37 80 -65 l72 -33 -35 -16 c-19 -9 -56 -26 -82
-37 l-48 -22 0 31 c0 20 3 26 8 18 15 -23 42 -2 42 33 0 34 -20 51 -38 33 -7
-7 -11 7 -14 43 l-3 54 70 1 c40 1 71 7 73 13 7 21 12 11 11 -21z m-1508 -21
c-1 -4 -1 -14 -1 -22 0 -8 -4 -15 -10 -15 -5 0 -10 12 -10 26 0 14 5 24 11 22
6 -2 10 -7 10 -11z m1302 -11 c6 -15 -1 -26 -15 -26 -4 0 -8 9 -8 20 0 23 15
27 23 6z m-1303 -71 c0 -26 -14 -33 -25 -15 -9 14 1 40 15 40 5 0 10 -11 10
-25z m1310 -5 c0 -11 -7 -20 -15 -20 -8 0 -15 9 -15 20 0 11 7 20 15 20 8 0
15 -9 15 -20z m-1310 -65 c0 -14 -4 -25 -9 -25 -12 0 -23 29 -15 41 10 18 24
9 24 -16z m1303 9 c8 -8 -3 -34 -14 -34 -5 0 -9 9 -9 20 0 19 11 26 23 14z
m-1358 -118 c12 -50 16 -82 9 -79 -5 2 -30 -5 -55 -16 l-44 -20 70 -3 70 -3
-38 -41 c-20 -23 -37 -44 -37 -48 0 -10 74 23 78 35 4 9 61 -58 62 -72 0 -3
-6 -6 -13 -6 -17 0 -104 -59 -109 -74 -2 -7 -12 1 -22 16 -15 22 -15 27 -3 22
8 -3 38 10 67 30 45 30 50 37 38 49 -12 13 -22 11 -71 -11 -31 -13 -57 -30
-58 -37 0 -7 -5 -3 -11 10 -10 20 -7 28 27 62 21 22 36 43 32 46 -3 4 -32 9
-64 13 -46 5 -59 10 -61 25 -3 12 0 16 7 11 19 -11 121 36 121 57 0 21 -11 22
-80 7 -27 -6 -50 -16 -50 -22 -1 -23 -18 19 -25 61 -5 32 -4 42 7 42 10 0 13
-10 10 -37 -4 -31 -2 -35 13 -30 9 4 23 7 31 7 17 0 10 40 -10 52 -6 4 3 7 19
7 17 0 25 -3 19 -5 -7 -3 -10 -14 -7 -25 4 -15 13 -19 32 -17 21 2 26 8 23 28
-1 14 -10 31 -19 38 -15 11 -15 12 3 12 16 0 23 -14 39 -84z m65 49 c0 -8 0
-18 1 -22 0 -4 -4 -9 -9 -11 -11 -3 -23 34 -14 42 10 11 22 6 22 -9z m1355 5
c-6 -9 0 -11 84 -29 42 -9 43 -9 38 15 -3 16 0 24 9 24 17 0 17 -5 3 -70 -9
-42 -14 -50 -32 -49 -17 1 -18 2 -4 6 9 2 17 13 17 23 0 14 -12 21 -53 30 -30
6 -60 8 -69 5 -11 -5 -14 1 -10 25 2 16 9 30 14 30 5 0 6 -4 3 -10z m-75 -20
c0 -11 -7 -20 -15 -20 -17 0 -18 2 -9 24 9 23 24 20 24 -4z m-1260 -59 c7 -14
7 -22 -1 -27 -12 -7 -29 12 -29 34 0 19 18 14 30 -7z m1250 5 c0 -16 -14 -36
-26 -36 -16 0 -16 2 -8 24 5 14 34 24 34 12z m118 -50 c29 -10 59 -15 67 -12
18 6 18 5 5 -30 -9 -23 -12 -25 -23 -12 -14 18 -105 50 -118 42 -11 -6 -12 8
-3 31 4 9 10 12 13 7 3 -5 30 -17 59 -26z m-1340 -30 c3 -12 -1 -17 -10 -14
-7 3 -15 13 -16 22 -3 12 1 17 10 14 7 -3 15 -13 16 -22z m1192 15 c0 -17 -12
-41 -21 -41 -10 0 -12 33 -2 43 9 10 23 9 23 -2z m155 -56 c32 -31 32 -75 2
-111 -69 -80 -181 27 -116 110 28 35 80 36 114 1z m-1316 -14 c6 -10 7 -21 4
-25 -9 -8 -33 14 -33 30 0 20 18 17 29 -5z m1131 0 c0 -11 -29 -35 -35 -29
-10 9 7 38 21 38 8 0 14 -4 14 -9z m-1091 -60 c6 -10 7 -21 4 -25 -9 -8 -33
14 -33 30 0 20 18 17 29 -5z m1041 -15 c-17 -22 -32 -9 -19 16 8 14 14 17 22
9 7 -7 6 -15 -3 -25z m122 -65 c21 -19 46 -34 53 -34 11 0 12 -4 4 -14 -8 -9
-37 -13 -88 -13 l-76 -1 38 -35 c21 -19 42 -32 48 -28 7 4 7 -1 0 -15 -12 -22
-33 -29 -26 -8 2 6 -18 30 -45 52 -27 22 -48 45 -46 50 2 6 36 9 81 8 l78 -2
-34 35 c-21 22 -41 33 -51 31 -16 -5 -16 -4 0 18 14 19 18 20 21 7 2 -10 21
-32 43 -51z m-1115 24 c3 -9 3 -19 -1 -22 -7 -7 -36 16 -36 28 0 15 30 10 37
-6z m953 1 c0 -18 -17 -29 -30 -21 -8 5 -7 11 1 21 15 18 29 18 29 0z m-1028
-58 c-10 -4 -35 -22 -56 -41 -41 -35 -43 -64 -3 -53 19 5 19 4 3 -12 -15 -16
-19 -14 -56 28 -44 50 -46 56 -26 63 10 4 13 1 10 -7 -3 -7 1 -18 8 -24 10 -8
23 -1 56 29 23 22 42 47 42 55 0 12 5 10 19 -7 18 -22 18 -25 3 -31z m127 9
c6 -8 8 -17 5 -20 -9 -8 -44 11 -44 23 0 15 26 12 39 -3z m851 -1 c0 -15 -24
-28 -34 -19 -7 7 13 33 25 33 5 0 9 -6 9 -14z m-806 -32 c9 -3 16 -12 16 -20
0 -17 -12 -18 -28 -2 -22 22 -16 33 12 22z m743 -21 c-9 -9 -20 -12 -28 -8 -9
6 -8 11 6 21 23 17 42 6 22 -13z m-669 -31 c3 -9 -2 -13 -14 -10 -9 1 -19 9
-22 16 -3 9 2 13 14 10 9 -1 19 -9 22 -16z m617 9 c6 -11 -29 -33 -39 -24 -7
7 12 33 25 33 4 0 10 -4 14 -9z m-561 -27 c9 -3 16 -10 16 -16 0 -14 -43 -5
-48 10 -4 13 7 15 32 6z m496 -8 c0 -7 -9 -16 -20 -19 -22 -6 -29 18 -7 26 21
9 27 7 27 -7z m-436 -12 c24 -9 20 -33 -4 -27 -11 3 -20 12 -20 19 0 16 2 16
24 8z m375 -18 c-2 -2 -14 -7 -26 -10 -17 -5 -23 -3 -23 8 0 17 30 27 44 14 5
-4 8 -9 5 -12z m-286 -11 c-4 -15 -36 -12 -41 3 -3 9 3 13 19 10 13 -1 23 -7
22 -13z m208 0 c0 -5 -9 -11 -21 -13 -20 -3 -27 8 -13 22 10 9 34 3 34 -9z
m-138 -10 c-4 -15 -36 -12 -41 3 -3 9 3 13 19 10 13 -1 23 -7 22 -13z m70 0
c-4 -15 -36 -12 -41 3 -3 9 3 13 19 10 13 -1 23 -7 22 -13z"/>
<path d="M1038 2085 c-10 -10 4 -55 17 -55 19 0 38 28 31 45 -5 14 -37 21 -48
10z"/>
<path d="M1212 2062 c-10 -30 -10 -32 14 -32 20 0 23 3 16 18 -5 9 -11 24 -14
32 -3 9 -9 2 -16 -18z"/>
<path d="M1681 1931 c-16 -10 -6 -31 15 -31 8 0 14 9 14 20 0 22 -7 25 -29 11z"/>
<path d="M1194 1825 c-4 -8 -3 -26 0 -40 5 -18 2 -25 -8 -25 -20 0 -31 20 -27
48 3 23 -9 27 -41 14 -13 -5 -15 -11 -8 -22 5 -8 10 -25 10 -37 0 -13 5 -23
11 -23 6 0 8 9 3 23 -6 21 -6 21 13 5 25 -23 75 -25 67 -3 -4 9 3 23 17 33 12
11 19 24 15 30 -10 17 -46 15 -52 -3z m36 -10 c0 -8 -4 -15 -9 -15 -13 0 -22
16 -14 24 11 11 23 6 23 -9z m-80 -10 c0 -8 -4 -15 -9 -15 -13 0 -22 16 -14
24 11 11 23 6 23 -9z"/>
<path d="M1272 1828 c-7 -7 -12 -25 -12 -40 0 -21 6 -29 25 -34 31 -8 55 10
55 40 0 26 -18 46 -40 46 -9 0 -21 -5 -28 -12z m53 -17 c9 -29 -5 -52 -29 -49
-37 5 -34 68 3 68 11 0 22 -8 26 -19z"/>
<path d="M1363 1817 c0 -7 -3 -27 -7 -44 -4 -19 -4 -33 2 -33 5 0 9 6 10 13 0
6 3 24 6 39 4 15 2 29 -2 32 -5 3 -9 0 -9 -7z"/>
<path d="M1395 1810 c4 -6 2 -17 -4 -24 -6 -7 -8 -21 -5 -30 8 -20 44 -42 44
-26 0 5 7 10 16 10 8 0 13 4 9 9 -3 5 -1 12 5 16 6 4 10 -8 10 -29 0 -20 3
-36 8 -36 4 0 6 21 3 46 l-3 46 -27 -26 c-15 -14 -32 -26 -38 -26 -18 0 -21
34 -4 46 14 11 8 34 -10 34 -6 0 -7 -5 -4 -10z"/>
<path d="M1068 1794 c29 -20 26 -58 -5 -62 -17 -3 -24 3 -29 22 -3 14 -3 31 2
38 5 10 4 10 -5 2 -7 -6 -11 -24 -9 -40 6 -51 78 -41 78 10 0 26 -17 46 -39
46 -11 0 -8 -5 7 -16z"/>
<path d="M952 1758 c-34 -34 6 -90 48 -68 11 6 20 13 20 16 0 2 -9 0 -19 -6
-37 -19 -70 38 -33 59 9 6 12 11 7 11 -6 0 -16 -5 -23 -12z"/>
<path d="M1523 1725 c-12 -18 -19 -36 -16 -39 4 -3 15 8 25 25 12 19 24 29 33
25 21 -8 19 1 -3 13 -14 7 -22 3 -39 -24z"/>
<path d="M919 1701 l21 -29 -41 9 c-23 6 -44 7 -47 4 -3 -3 7 -18 22 -34 16
-16 23 -31 18 -35 -6 -3 -21 7 -35 24 -22 25 -27 27 -37 15 -10 -12 -9 -15 3
-15 9 0 24 -11 35 -25 19 -24 20 -24 36 -6 15 16 15 19 1 31 -26 22 -16 30 27
24 l41 -7 -27 36 c-33 44 -46 50 -17 8z"/>
<path d="M1590 1723 c0 -5 -11 -20 -24 -34 l-24 -26 50 -43 c44 -38 52 -41 74
-31 29 13 32 51 6 74 -17 16 -20 15 -42 -8 -24 -25 -47 -35 -34 -13 4 6 3 8
-2 5 -17 -10 -34 7 -23 23 7 13 10 13 18 1 5 -8 11 -9 15 -3 3 6 1 12 -6 14
-7 3 -8 9 -3 18 6 10 10 10 21 -4 6 -9 14 -14 17 -9 3 4 -6 16 -19 26 -13 10
-24 14 -24 10z m86 -85 c9 -29 -20 -52 -48 -37 -19 10 -19 11 3 35 28 30 36
30 45 2z"/>
<path d="M940 1350 c0 -109 5 -222 11 -249 17 -79 56 -124 151 -172 46 -23 96
-51 112 -62 24 -17 33 -18 55 -10 206 85 250 111 281 173 38 74 50 155 50 343
l0 177 -330 0 -330 0 0 -200z m648 -2 c-7 -298 -39 -360 -221 -433 -51 -20
-97 -41 -104 -47 -9 -7 -21 -4 -40 10 -15 11 -65 38 -110 61 -141 70 -155 102
-161 384 l-4 207 322 0 322 0 -4 -182z"/>
<path d="M992 1298 c3 -178 5 -196 26 -236 21 -39 98 -102 126 -102 5 0 31
-14 58 -31 l49 -32 68 32 c37 17 72 31 78 31 5 0 29 13 51 30 78 56 102 139
102 355 l0 145 -281 0 -281 0 4 -192z m546 15 c-3 -148 -7 -174 -27 -219 -31
-70 -61 -96 -166 -141 l-90 -39 -87 46 c-48 26 -99 57 -113 70 -42 40 -55 105
-55 287 l0 163 271 0 271 0 -4 -167z"/>
<path d="M1107 1454 c-4 -4 -7 -16 -7 -26 0 -13 -7 -18 -25 -18 -19 0 -25 -5
-25 -22 1 -21 2 -21 11 -5 5 9 19 17 30 17 19 0 20 -5 17 -85 -3 -79 -2 -85
17 -85 19 0 20 6 17 85 -3 85 -3 85 22 85 15 0 26 -7 29 -17 4 -14 5 -12 6 5
1 17 -4 22 -23 22 -18 0 -25 6 -28 22 -3 23 -27 35 -41 22z m33 -25 c0 -5 -7
-9 -15 -9 -15 0 -20 12 -9 23 8 8 24 -1 24 -14z"/>
<path d="M1330 1388 c1 -21 2 -21 11 -5 5 9 19 17 30 17 19 0 20 -5 17 -85 -3
-79 -2 -85 17 -85 19 0 20 6 17 85 -3 80 -2 85 17 85 11 0 25 -8 30 -17 9 -16
10 -16 11 5 0 21 -4 22 -75 22 -71 0 -75 -1 -75 -22z"/>
<path d="M1218 1341 c10 -6 13 -28 10 -80 l-3 -72 55 3 c46 3 55 6 58 23 2 18
2 18 -8 3 -7 -12 -23 -18 -45 -18 l-35 0 0 69 c0 46 4 71 13 74 6 3 -4 6 -23
6 -23 0 -30 -2 -22 -8z"/>
<path d="M1226 1093 c-16 -38 -36 -74 -44 -80 -13 -11 -10 -13 19 -13 21 0 29
3 21 8 -23 15 -2 42 33 42 35 0 56 -27 33 -42 -8 -5 2 -8 26 -8 33 0 37 2 24
13 -8 6 -28 42 -43 80 -15 37 -31 67 -34 67 -4 0 -19 -30 -35 -67z m54 -25 c0
-5 -11 -8 -25 -8 -29 0 -29 -1 -14 37 l11 28 13 -25 c8 -14 14 -28 15 -32z"/>
<path d="M926 824 c-9 -8 -16 -22 -16 -29 0 -35 53 -58 78 -33 9 9 12 8 12 -8
0 -22 18 -44 35 -44 5 0 2 5 -7 11 -21 12 -23 39 -5 58 10 11 9 13 -5 8 -13
-5 -18 -1 -18 13 0 10 -4 21 -9 24 -4 3 -6 -5 -4 -17 5 -27 -19 -52 -42 -43
-22 8 -18 43 7 60 18 13 19 16 6 16 -9 0 -24 -7 -32 -16z"/>
<path d="M1538 835 c-3 -4 5 -17 19 -31 14 -14 21 -29 17 -37 -5 -8 -2 -7 9 2
14 11 15 16 5 25 -7 6 -20 19 -29 29 -8 9 -18 15 -21 12z"/>
<path d="M1481 799 c-1 -12 -8 -15 -26 -11 -22 4 -25 1 -25 -22 0 -20 5 -26
21 -26 15 0 19 -5 15 -16 -3 -8 -2 -12 4 -9 6 3 10 16 10 28 0 17 6 22 25 22
27 0 30 -5 15 -23 -5 -7 -3 -6 6 2 17 15 13 66 -6 66 -5 0 -7 -6 -4 -14 3 -8
1 -17 -5 -21 -6 -3 -15 4 -20 17 -6 15 -10 17 -10 7z m-13 -37 c2 -7 -3 -12
-12 -12 -9 0 -16 7 -16 16 0 17 22 14 28 -4z"/>
<path d="M1062 776 c10 -9 22 -14 28 -11 16 10 22 -19 11 -48 -6 -15 -7 -27
-2 -27 5 0 12 11 15 24 3 13 8 31 12 39 3 10 -3 17 -19 21 -14 3 -33 9 -44 13
-17 7 -17 6 -1 -11z"/>
<path d="M1382 763 c-10 -4 -9 -8 3 -17 9 -6 17 -21 18 -34 1 -23 17 -32 17
-9 -1 26 -26 64 -38 60z"/>
<path d="M1215 710 c0 -22 5 -40 10 -40 6 0 9 17 7 40 -2 22 -7 40 -11 40 -3
0 -6 -18 -6 -40z"/>
<path d="M1269 748 c-6 -14 -5 -69 1 -73 4 -3 7 1 6 8 0 6 4 12 9 12 6 0 9 -6
9 -12 -1 -7 2 -10 7 -7 10 6 6 60 -5 72 -4 4 -6 3 -4 -3 2 -5 -1 -11 -7 -12
-5 -2 -9 2 -7 7 2 8 -6 15 -9 8z"/>
<path d="M1331 674 c0 -11 3 -14 6 -6 3 7 2 16 -1 19 -3 4 -6 -2 -5 -13z"/>
<path d="M1938 1664 c-31 -16 -46 -59 -31 -83 17 -27 69 -26 98 3 30 30 32 49
5 76 -24 24 -36 24 -72 4z"/>
<path d="M2040 1232 c0 -15 5 -19 20 -15 22 6 38 23 21 23 -5 0 -16 3 -25 6
-11 4 -16 0 -16 -14z"/>
<path d="M1910 920 c-31 -31 -24 -62 21 -85 40 -21 66 -18 85 10 21 33 10 64
-32 81 -44 18 -50 18 -74 -6z"/>
</g>
</svg>
