<?xml version="1.0" standalone="no"?>
<!DOCTYPE svg PUBLIC "-//W3C//DTD SVG 20010904//EN"
 "http://www.w3.org/TR/2001/REC-SVG-20010904/DTD/svg10.dtd">
<svg version="1.0" xmlns="http://www.w3.org/2000/svg"
 width="250.000000pt" height="250.000000pt" viewBox="0 0 250.000000 250.000000"
 preserveAspectRatio="xMidYMid meet">

<g transform="translate(0.000000,250.000000) scale(0.100000,-0.100000)"
fill="#000000" stroke="none">
<path d="M1105 2243 c-402 -64 -732 -362 -831 -752 -102 -400 47 -822 378
-1067 85 -62 230 -130 343 -161 88 -23 119 -26 255 -26 136 0 167 3 255 26 57
15 148 51 210 82 608 303 732 1139 238 1616 -140 135 -265 207 -458 261 -69
19 -318 33 -390 21z m374 -44 c331 -84 592 -324 699 -644 53 -158 67 -362 36
-512 -83 -403 -396 -708 -800 -778 -430 -75 -863 151 -1049 548 -60 126 -86
236 -92 382 -6 144 7 237 54 375 115 341 430 599 795 650 92 13 263 3 357 -21z"/>
<path d="M1099 2115 c-3 -2 0 -36 5 -75 11 -78 33 -98 28 -25 -2 26 0 45 6 45
12 0 22 -24 22 -55 0 -13 5 -27 10 -30 13 -8 13 61 -1 86 -7 14 -16 18 -30 14
-14 -5 -19 -2 -19 14 0 19 -13 35 -21 26z"/>
<path d="M1349 2093 c-25 -63 -38 -113 -28 -113 5 0 12 7 15 15 9 22 31 18 37
-5 3 -11 9 -20 14 -20 9 0 7 110 -2 138 -7 21 -25 13 -36 -15z m17 -61 c-12
-11 -18 7 -10 30 l8 23 4 -23 c2 -13 1 -26 -2 -30z"/>
<path d="M1031 2098 l-33 -9 21 -20 c11 -11 21 -25 21 -32 0 -30 22 -89 31
-80 5 5 2 31 -6 63 -10 40 -11 57 -3 67 15 19 8 21 -31 11z"/>
<path d="M1217 2072 c-33 -36 -16 -92 27 -92 20 0 20 1 -2 16 -25 17 -21 34 9
34 22 0 26 29 7 48 -16 16 -22 15 -41 -6z m30 -28 c-9 -9 -28 6 -21 18 4 6 10
6 17 -1 6 -6 8 -13 4 -17z"/>
<path d="M912 2058 c-14 -14 -16 -68 -4 -68 5 0 17 -18 27 -40 22 -49 40 -43
19 6 -8 20 -13 42 -10 49 2 7 -2 16 -10 19 -10 4 -13 13 -9 26 7 23 4 25 -13
8z"/>
<path d="M1435 2057 c-2 -7 -8 -27 -14 -46 -13 -41 -14 -51 -3 -51 5 0 16 18
25 41 19 48 40 45 26 -4 -11 -40 -11 -47 0 -47 5 0 15 16 21 35 17 51 34 45
26 -10 -9 -58 10 -60 22 -2 5 23 7 47 5 52 -6 17 -104 45 -108 32z"/>
<path d="M1566 1978 c-26 -37 -14 -78 23 -78 12 0 11 3 -2 18 -21 23 -12 34
19 26 21 -6 24 -3 24 25 0 26 -4 31 -24 31 -14 0 -32 -10 -40 -22z m45 -11
c-13 -13 -26 -3 -16 12 3 6 11 8 17 5 6 -4 6 -10 -1 -17z"/>
<path d="M835 1960 c-7 -23 17 -67 41 -77 9 -3 23 2 32 10 15 15 15 19 -1 52
-20 41 -61 50 -72 15z m65 -46 c0 -8 -4 -14 -9 -14 -16 0 -40 41 -34 58 5 12
9 11 25 -8 10 -12 18 -28 18 -36z"/>
<path d="M1641 1929 c-13 -22 -21 -42 -18 -45 2 -3 20 11 39 30 24 24 32 38
24 46 -16 16 -21 13 -45 -31z"/>
<path d="M1698 1909 c-37 -50 -41 -59 -26 -59 16 0 61 67 55 83 -2 6 -15 -5
-29 -24z"/>
<path d="M732 1898 c-18 -18 -15 -29 17 -68 35 -41 53 -34 22 8 -39 55 -19 74
22 21 14 -18 27 -27 31 -21 9 14 -42 72 -63 72 -9 0 -22 -5 -29 -12z"/>
<path d="M1732 1884 c-17 -12 -22 -24 -20 -47 2 -17 9 -32 16 -35 9 -3 11 3 6
22 -7 31 10 56 38 56 10 0 16 5 13 10 -9 14 -27 12 -53 -6z"/>
<path d="M1110 1859 c-192 -53 -334 -166 -415 -333 -58 -118 -68 -173 -63
-315 4 -99 9 -127 35 -193 60 -151 166 -268 308 -339 105 -52 205 -73 310 -65
173 13 283 63 400 181 132 132 185 260 185 446 0 87 -5 123 -25 186 -66 210
-214 356 -429 422 -74 23 -238 28 -306 10z m284 -19 c102 -26 187 -72 263
-143 81 -76 130 -151 167 -257 27 -76 30 -97 30 -200 0 -99 -4 -126 -28 -195
-88 -254 -309 -414 -572 -415 -265 0 -490 163 -581 422 -22 61 -26 92 -27 183
-1 96 3 121 28 199 101 307 415 484 720 406z"/>
<path d="M1101 1799 c-92 -24 -202 -91 -268 -163 -86 -93 -153 -252 -152 -356
0 -32 2 -30 23 27 46 122 136 211 263 259 60 23 79 25 168 22 89 -3 108 -8
170 -38 81 -39 158 -111 203 -190 l31 -54 10 28 c14 34 14 91 1 136 -7 25 -7
36 3 42 36 23 57 -93 32 -179 -13 -46 -28 -69 -70 -110 -59 -57 -59 -83 0 -32
80 71 116 181 91 279 -13 49 -13 56 1 67 22 17 28 11 44 -44 34 -122 -3 -246
-99 -334 -57 -52 -65 -77 -13 -40 49 35 100 101 121 158 25 66 27 187 5 240
-14 33 -14 38 0 52 21 21 31 7 51 -69 20 -79 14 -161 -17 -246 -17 -46 -38
-75 -95 -132 -41 -40 -74 -75 -74 -78 0 -13 66 35 105 77 106 114 140 274 89
424 -35 102 -199 225 -345 260 -86 20 -188 18 -278 -6z"/>
<path d="M859 1458 c-154 -128 -194 -365 -88 -530 43 -66 149 -163 217 -197
94 -47 167 -65 267 -64 250 2 459 157 541 403 20 61 26 233 10 305 l-9 40 -13
-78 c-35 -198 -177 -343 -371 -379 -166 -31 -354 59 -450 214 -20 32 -39 58
-44 58 -4 0 -11 -16 -15 -36 -6 -31 -4 -60 8 -138 2 -10 -2 -21 -9 -23 -20 -7
-36 39 -36 107 0 83 29 147 92 200 28 25 40 40 30 40 -25 0 -98 -76 -120 -123
-21 -47 -26 -167 -9 -213 11 -28 1 -43 -26 -44 -18 0 -34 72 -34 153 0 65 4
83 33 138 21 42 50 77 84 105 63 52 55 68 -9 19 -51 -38 -101 -111 -117 -170
-15 -55 -14 -153 3 -208 12 -41 12 -48 -1 -59 -21 -17 -39 9 -54 81 -33 159
31 311 176 418 22 16 25 22 13 23 -10 0 -40 -19 -69 -42z"/>
<path d="M1194 1450 c-63 -9 -135 -51 -171 -99 -80 -104 -15 -238 126 -260
108 -17 221 23 278 98 42 54 46 129 11 181 -42 61 -146 96 -244 80z"/>
<path d="M1820 1845 c17 -21 5 -32 -29 -27 -38 5 -52 -20 -26 -48 24 -27 30
-26 60 14 22 29 24 38 15 55 -6 12 -16 21 -22 21 -7 0 -6 -5 2 -15z m-20 -50
c0 -8 -7 -15 -15 -15 -16 0 -20 12 -8 23 11 12 23 8 23 -8z"/>
<path d="M673 1843 c-21 -8 -14 -48 12 -73 21 -19 30 -22 43 -14 27 17 26 42
-4 69 -28 26 -31 27 -51 18z m55 -57 c2 -9 -1 -16 -7 -16 -15 0 -51 42 -45 52
8 12 48 -15 52 -36z"/>
<path d="M616 1782 c-6 -11 73 -77 81 -68 8 7 -13 32 -48 57 -15 10 -30 15
-33 11z"/>
<path d="M1830 1755 c-23 -24 -29 -35 -19 -35 9 0 24 9 34 20 20 22 45 27 45
8 0 -7 -12 -22 -27 -34 -16 -12 -25 -25 -21 -29 11 -12 67 38 67 61 1 22 -16
44 -34 44 -6 0 -26 -16 -45 -35z"/>
<path d="M586 1738 c-11 -25 1 -38 36 -38 26 0 30 -3 25 -21 -3 -13 -1 -19 6
-16 7 2 12 15 12 28 0 20 -6 25 -32 27 -20 2 -33 10 -36 20 -4 16 -4 16 -11 0z"/>
<path d="M1933 1668 c-57 -32 -63 -46 -34 -72 22 -20 56 -15 65 9 3 8 15 15
26 15 25 0 34 21 26 55 -8 32 -19 31 -83 -7z m63 -25 c-3 -3 -13 -2 -23 1 -17
7 -17 8 2 22 18 13 20 13 23 -1 2 -9 1 -19 -2 -22z m-46 -17 c0 -19 -17 -29
-37 -22 -12 5 -13 9 -3 21 16 19 40 19 40 1z"/>
<path d="M550 1683 c0 -11 67 -53 82 -53 17 1 -52 60 -69 60 -7 0 -13 -3 -13
-7z"/>
<path d="M530 1653 c0 -4 10 -17 21 -29 l22 -23 -38 6 c-26 4 -36 3 -31 -5 7
-12 94 -28 103 -18 4 3 -9 22 -27 41 -32 33 -50 43 -50 28z"/>
<path d="M490 1567 c0 -15 87 -50 95 -37 3 5 -15 18 -41 29 -55 25 -54 25 -54
8z"/>
<path d="M1952 1564 c-15 -10 -22 -24 -20 -37 4 -30 47 -34 79 -8 20 16 22 23
13 38 -15 24 -44 27 -72 7z m58 -12 c0 -16 -25 -32 -49 -32 l-26 1 24 19 c24
20 51 27 51 12z"/>
<path d="M424 1504 c-21 -31 -15 -37 59 -58 64 -18 77 -15 77 17 0 28 -9 41
-37 56 -38 20 -81 14 -99 -15z m91 -6 c14 -6 25 -19 25 -29 0 -15 -4 -16 -37
-7 -52 14 -75 27 -68 39 8 13 49 11 80 -3z"/>
<path d="M2040 1471 c0 -24 -15 -28 -24 -6 -6 18 -53 20 -58 3 -3 -7 -2 -23 0
-36 4 -20 8 -22 36 -16 17 3 39 10 49 16 18 9 23 43 7 53 -5 3 -10 -3 -10 -14z
m-35 -21 c3 -5 -3 -10 -14 -10 -12 0 -21 5 -21 10 0 6 6 10 14 10 8 0 18 -4
21 -10z"/>
<path d="M1993 1393 c-36 -7 -27 -26 10 -20 17 2 40 0 50 -5 23 -12 30 -6 21
16 -6 16 -31 19 -81 9z"/>
<path d="M430 1333 c0 -35 16 -53 46 -53 36 0 54 11 54 32 0 27 23 17 30 -13
4 -16 8 -20 14 -11 11 17 -2 50 -22 56 -9 2 -41 8 -69 11 l-53 7 0 -29z m71
-3 c5 0 9 -7 9 -15 0 -17 -45 -21 -55 -5 -9 15 5 32 22 26 8 -3 19 -6 24 -6z"/>
<path d="M1985 1330 c-3 -5 -3 -21 1 -35 5 -22 11 -25 49 -25 57 0 106 10 99
21 -3 5 -14 9 -26 9 -11 0 -22 8 -25 20 -4 16 -14 20 -49 20 -23 0 -45 -4 -49
-10z m83 -22 c-7 -20 -68 -23 -68 -4 0 12 10 16 36 16 24 0 34 -4 32 -12z"/>
<path d="M432 1248 c-6 -7 -8 -26 -5 -41 5 -23 10 -28 27 -23 11 3 33 6 49 6
15 0 27 5 27 10 0 6 -20 10 -45 10 -45 0 -60 12 -29 24 9 3 29 6 45 6 16 0 29
5 29 10 0 14 -86 12 -98 -2z"/>
<path d="M1999 1201 c-31 -26 -17 -52 35 -65 48 -13 90 2 94 32 3 18 -4 26
-32 37 -47 20 -69 19 -97 -4z m106 -31 c0 -19 -42 -24 -78 -11 -45 17 -32 32
26 29 38 -2 52 -7 52 -18z"/>
<path d="M463 1163 c-35 -5 -46 -23 -14 -23 34 0 81 12 81 21 0 9 -8 9 -67 2z"/>
<path d="M478 1118 c-30 -8 -38 -15 -38 -33 0 -15 -8 -26 -20 -30 -11 -3 -20
-11 -20 -17 0 -11 40 -6 113 13 53 14 47 30 -9 22 -37 -5 -46 -3 -42 8 2 7 21
18 41 22 20 5 37 13 37 18 0 11 -13 10 -62 -3z"/>
<path d="M1975 1101 c3 -5 23 -12 45 -16 22 -4 40 -11 40 -16 0 -4 7 -6 16 -2
9 3 20 0 24 -8 5 -7 12 -10 16 -6 5 4 -1 17 -13 28 -14 15 -37 22 -77 25 -32
2 -55 0 -51 -5z"/>
<path d="M537 1020 c-6 -23 -45 -28 -65 -8 -17 17 -28 2 -12 -17 25 -30 100
-11 100 25 0 26 -16 26 -23 0z"/>
<path d="M1950 1001 c0 -5 16 -15 35 -21 50 -16 43 -28 -17 -32 l-53 -3 58
-28 c58 -27 93 -35 82 -18 -3 5 -19 12 -35 16 -45 10 -36 25 16 25 62 0 54 18
-21 47 -68 26 -65 26 -65 14z"/>
<path d="M528 959 c-37 -19 -50 -50 -28 -64 6 -3 10 3 10 14 0 25 13 27 30 6
29 -35 67 -4 47 38 -14 32 -12 31 -59 6z m47 -18 c7 -12 -12 -24 -25 -16 -11
7 -4 25 10 25 5 0 11 -4 15 -9z"/>
<path d="M1902 898 c-7 -7 -12 -18 -12 -25 0 -10 4 -11 19 -1 15 9 27 7 64
-15 46 -27 73 -35 62 -18 -5 9 -108 71 -117 71 -2 0 -9 -5 -16 -12z"/>
<path d="M552 874 c-33 -23 -26 -58 11 -62 35 -4 69 24 65 52 -4 27 -45 32
-76 10z m58 -12 c0 -14 -23 -32 -42 -32 -21 0 -23 11 -6 28 13 13 48 16 48 4z"/>
<path d="M1870 832 c0 -4 9 -13 20 -20 15 -9 19 -19 14 -37 -8 -31 11 -55 42
-55 20 0 44 24 44 44 0 7 -102 76 -112 76 -5 0 -8 -3 -8 -8z m85 -65 c13 -10
15 -16 6 -21 -17 -11 -41 0 -41 19 0 19 11 19 35 2z"/>
<path d="M645 812 c3 -11 -3 -30 -16 -47 -19 -24 -27 -27 -61 -22 -33 4 -37 3
-27 -9 19 -23 66 -17 100 14 26 23 31 33 25 55 -3 15 -11 27 -17 27 -6 0 -8
-8 -4 -18z"/>
<path d="M1732 668 c-19 -19 -14 -36 13 -54 19 -12 28 -14 38 -5 17 13 28 4
20 -17 -4 -10 -2 -13 5 -8 19 12 14 29 -19 64 -33 35 -39 38 -57 20z m38 -23
c7 -9 11 -18 8 -20 -9 -10 -38 7 -38 21 0 18 14 18 30 -1z"/>
<path d="M760 640 c-44 -29 -44 -30 -16 -30 23 0 27 -3 23 -20 -3 -11 -2 -20
2 -20 6 0 61 86 61 95 0 13 -29 2 -70 -25z m35 -10 c-3 -5 -11 -10 -16 -10 -6
0 -7 5 -4 10 3 6 11 10 16 10 6 0 7 -4 4 -10z"/>
<path d="M1672 618 c-18 -18 -15 -32 13 -58 29 -27 32 -20 9 16 -23 34 -9 43
21 14 14 -13 25 -19 25 -13 0 9 -42 53 -51 53 -3 0 -10 -5 -17 -12z"/>
<path d="M801 568 c-31 -41 -34 -57 -9 -42 7 5 21 7 31 6 25 -5 47 16 47 43 0
19 -16 35 -35 35 -2 0 -17 -19 -34 -42z m49 -9 c-12 -22 -30 -25 -30 -6 0 17
21 38 32 31 4 -3 3 -14 -2 -25z"/>
<path d="M1630 580 c0 -19 28 -60 41 -60 11 0 1 21 -25 55 -12 15 -15 16 -16
5z"/>
<path d="M872 528 c-25 -48 -28 -63 -10 -51 7 4 22 7 33 8 10 0 26 12 35 28
14 26 14 29 -4 43 -27 20 -28 19 -54 -28z m43 -7 c-7 -23 -25 -29 -25 -8 0 14
21 39 28 33 2 -3 1 -14 -3 -25z"/>
<path d="M1571 546 c-10 -11 -9 -22 5 -48 9 -18 19 -28 21 -21 2 7 -1 22 -7
33 -18 35 0 38 26 5 27 -34 33 -18 8 20 -18 28 -36 32 -53 11z"/>
<path d="M950 500 c-16 -38 -5 -53 11 -16 7 14 16 26 21 26 4 0 8 5 8 10 0 22
-28 8 -40 -20z"/>
<path d="M1530 514 c0 -11 7 -29 15 -40 19 -26 20 1 0 36 -13 23 -14 23 -15 4z"/>
<path d="M1345 511 c-3 -5 -1 -12 4 -15 5 -4 12 -24 16 -46 10 -57 20 -49 20
15 0 45 -3 55 -17 55 -9 0 -19 -4 -23 -9z"/>
<path d="M1001 491 c-16 -28 -14 -48 5 -55 24 -9 45 13 42 43 -4 32 -33 39
-47 12z m33 -24 c-3 -9 -10 -17 -15 -17 -11 0 -12 34 -2 43 11 12 24 -8 17
-26z"/>
<path d="M1237 479 c-36 -37 -35 -83 1 -85 29 -2 34 11 30 68 l-3 45 -28 -28z
m13 -44 c0 -14 -4 -25 -9 -25 -12 0 -19 21 -13 38 8 21 22 13 22 -13z"/>
<path d="M1479 501 c12 -8 12 -12 2 -25 -20 -24 -6 -49 21 -40 32 9 31 8 13
43 -8 17 -23 31 -33 31 -14 0 -14 -2 -3 -9z m21 -47 c0 -8 -4 -12 -10 -9 -5 3
-10 10 -10 16 0 5 5 9 10 9 6 0 10 -7 10 -16z"/>
<path d="M1421 491 c-9 -6 -11 -18 -6 -40 9 -44 23 -39 21 9 0 22 -1 40 -1 40
0 0 -6 -4 -14 -9z"/>
<path d="M1071 468 c0 -13 4 -31 8 -42 7 -17 8 -16 24 7 21 32 23 58 2 31 -14
-19 -14 -18 -15 4 0 12 -4 22 -10 22 -5 0 -10 -10 -9 -22z"/>
<path d="M1140 456 c-11 -31 -4 -56 18 -56 12 0 13 3 4 12 -18 18 -15 28 9 28
14 0 19 5 17 17 -5 29 -37 28 -48 -1z m35 4 c3 -5 -1 -10 -10 -10 -9 0 -13 5
-10 10 3 6 8 10 10 10 2 0 7 -4 10 -10z"/>
</g>
</svg>
