<svg width="136" height="26" viewBox="0 0 136 26" fill="none" xmlns="http://www.w3.org/2000/svg">
<path d="M9.66554 20.2841C7.72009 20.2841 6.05011 19.8967 4.65558 19.122C3.26105 18.3472 2.18503 17.2626 1.42751 15.8681C0.687205 14.4563 0.317053 12.7949 0.317053 10.8839C0.317053 8.97291 0.687205 7.32014 1.42751 5.92561C2.18503 4.53109 3.26105 3.44645 4.65558 2.67172C6.05011 1.89698 7.72009 1.50961 9.66554 1.50961C10.9223 1.50961 12.0672 1.69038 13.1002 2.05193C14.1332 2.39626 15.0112 2.90414 15.7343 3.57558L14.4689 6.752C13.677 6.13221 12.9194 5.69319 12.1964 5.43495C11.4905 5.1767 10.6899 5.04758 9.79467 5.04758C8.09025 5.04758 6.7818 5.55546 5.86933 6.57123C4.97408 7.56978 4.52646 9.00734 4.52646 10.8839C4.52646 12.7605 4.97408 14.2067 5.86933 15.2225C6.7818 16.2382 8.09025 16.7461 9.79467 16.7461C10.6899 16.7461 11.4905 16.617 12.1964 16.3587C12.9194 16.1005 13.677 15.6615 14.4689 15.0417L15.7343 18.2181C15.0112 18.8723 14.1332 19.3802 13.1002 19.7418C12.0672 20.1033 10.9223 20.2841 9.66554 20.2841ZM22.5369 20.2841C21.1423 20.2841 19.9286 20.0086 18.8956 19.4577C17.8798 18.8895 17.0879 18.0976 16.5197 17.0818C15.9688 16.0661 15.6934 14.8523 15.6934 13.4406C15.6934 12.046 15.9688 10.8409 16.5197 9.82512C17.0879 8.80936 17.8798 8.02601 18.8956 7.47509C19.9286 6.92416 21.1423 6.6487 22.5369 6.6487C23.9314 6.6487 25.1452 6.92416 26.1781 7.47509C27.2111 8.02601 28.0031 8.80936 28.554 9.82512C29.1221 10.8409 29.4062 12.046 29.4062 13.4406C29.4062 14.8523 29.1221 16.0661 28.554 17.0818C28.0031 18.0976 27.2111 18.8895 26.1781 19.4577C25.1452 20.0086 23.9314 20.2841 22.5369 20.2841ZM22.5369 17.3401C23.4321 17.3401 24.138 17.0216 24.6545 16.3846C25.1882 15.7476 25.455 14.7662 25.455 13.4406C25.455 12.1149 25.1882 11.1422 24.6545 10.5224C24.138 9.9026 23.4321 9.5927 22.5369 9.5927C21.6416 9.5927 20.9271 9.9026 20.3934 10.5224C19.8769 11.1422 19.6187 12.1149 19.6187 13.4406C19.6187 14.7662 19.8769 15.7476 20.3934 16.3846C20.9271 17.0216 21.6416 17.3401 22.5369 17.3401ZM35.979 20.2841C34.8427 20.2841 33.8441 20.0086 32.9833 19.4577C32.1225 18.9068 31.4511 18.1234 30.969 17.1076C30.4869 16.0919 30.2459 14.8695 30.2459 13.4406C30.2459 12.0288 30.4869 10.8151 30.969 9.7993C31.4511 8.78353 32.1225 8.00879 32.9833 7.47509C33.8441 6.92416 34.8427 6.6487 35.979 6.6487C37.0292 6.6487 37.9674 6.90695 38.7938 7.42344C39.6374 7.92271 40.1884 8.60276 40.4466 9.46358H40.1625L40.4724 6.90695H44.217C44.1653 7.47509 44.1137 8.05184 44.062 8.63719C44.0276 9.20533 44.0104 9.76486 44.0104 10.3158V20H40.1367L40.1109 17.5467H40.4208C40.1453 18.3731 39.5944 19.0359 38.768 19.5352C37.9416 20.0344 37.0119 20.2841 35.979 20.2841ZM37.1669 17.3401C38.0621 17.3401 38.7852 17.0216 39.3362 16.3846C39.8871 15.7476 40.1625 14.7662 40.1625 13.4406C40.1625 12.1149 39.8871 11.1422 39.3362 10.5224C38.7852 9.9026 38.0621 9.5927 37.1669 9.5927C36.2716 9.5927 35.5485 9.9026 34.9976 10.5224C34.4467 11.1422 34.1712 12.1149 34.1712 13.4406C34.1712 14.7662 34.4381 15.7476 34.9718 16.3846C35.5227 17.0216 36.2544 17.3401 37.1669 17.3401ZM52.4766 20.2841C51.0821 20.2841 49.8597 20.0086 48.8095 19.4577C47.7593 18.9068 46.9502 18.1148 46.382 17.0818C45.8139 16.0488 45.5298 14.8265 45.5298 13.4147C45.5298 11.9858 45.8139 10.772 46.382 9.77347C46.9674 8.75771 47.7765 7.98297 48.8095 7.44926C49.8597 6.91555 51.0821 6.6487 52.4766 6.6487C53.3547 6.6487 54.2069 6.77782 55.0332 7.03607C55.8768 7.29431 56.5655 7.65586 57.0992 8.1207L55.9629 10.8065C55.5325 10.4105 55.0332 10.1178 54.4651 9.92842C53.9142 9.72182 53.3805 9.61853 52.864 9.61853C51.8138 9.61853 50.996 9.94564 50.4107 10.5999C49.8253 11.2541 49.5326 12.201 49.5326 13.4406C49.5326 14.6801 49.8253 15.627 50.4107 16.2813C50.996 16.9355 51.8138 17.2626 52.864 17.2626C53.3633 17.2626 53.8884 17.1679 54.4393 16.9785C55.0074 16.7891 55.5153 16.5051 55.9629 16.1263L57.0992 18.7862C56.5483 19.2511 55.851 19.6212 55.0074 19.8967C54.181 20.1549 53.3374 20.2841 52.4766 20.2841ZM58.2817 20V0.993121H62.1812V9.36028H61.7938C62.207 8.48224 62.8182 7.81081 63.6274 7.34596C64.4365 6.88112 65.3662 6.6487 66.4164 6.6487C67.9487 6.6487 69.0936 7.09633 69.8511 7.99158C70.6086 8.86961 70.9874 10.2211 70.9874 12.046V20H67.0879V12.2268C67.0879 11.3143 66.9157 10.6601 66.5714 10.2641C66.2443 9.86816 65.7278 9.67018 65.0219 9.67018C64.1611 9.67018 63.4724 9.93703 62.9559 10.4707C62.4395 11.0044 62.1812 11.7189 62.1812 12.6142V20H58.2817ZM72.7507 20V15.8681H76.9343V20H72.7507Z" fill="#1E1835"/>
<path d="M83.436 20V11.3488L84.2624 13.6472L76.2826 1.79368H80.931L85.941 9.5927H85.1146L90.1246 1.79368H94.6181L86.6641 13.6472L87.4647 11.3488V20H83.436ZM98.3017 20.2841C96.9072 20.2841 95.6934 20.0086 94.6604 19.4577C93.6447 18.8895 92.8527 18.0976 92.2846 17.0818C91.7336 16.0661 91.4582 14.8523 91.4582 13.4406C91.4582 12.046 91.7336 10.8409 92.2846 9.82512C92.8527 8.80936 93.6447 8.02601 94.6604 7.47509C95.6934 6.92416 96.9072 6.6487 98.3017 6.6487C99.6962 6.6487 100.91 6.92416 101.943 7.47509C102.976 8.02601 103.768 8.80936 104.319 9.82512C104.887 10.8409 105.171 12.046 105.171 13.4406C105.171 14.8523 104.887 16.0661 104.319 17.0818C103.768 18.0976 102.976 18.8895 101.943 19.4577C100.91 20.0086 99.6962 20.2841 98.3017 20.2841ZM98.3017 17.3401C99.1969 17.3401 99.9028 17.0216 100.419 16.3846C100.953 15.7476 101.22 14.7662 101.22 13.4406C101.22 12.1149 100.953 11.1422 100.419 10.5224C99.9028 9.9026 99.1969 9.5927 98.3017 9.5927C97.4064 9.5927 96.692 9.9026 96.1583 10.5224C95.6418 11.1422 95.3835 12.1149 95.3835 13.4406C95.3835 14.7662 95.6418 15.7476 96.1583 16.3846C96.692 17.0216 97.4064 17.3401 98.3017 17.3401ZM112.88 25.7847C111.623 25.7847 110.504 25.6556 109.523 25.3973C108.542 25.1563 107.664 24.7862 106.889 24.2869L107.638 21.4978C108.12 21.8077 108.628 22.0574 109.161 22.2467C109.712 22.4533 110.272 22.5997 110.84 22.6858C111.425 22.7891 112.002 22.8407 112.57 22.8407C113.724 22.8407 114.584 22.5652 115.153 22.0143C115.721 21.4634 116.005 20.68 116.005 19.6643V16.9527H116.263C115.988 17.7791 115.437 18.4419 114.61 18.9412C113.784 19.4405 112.854 19.6901 111.821 19.6901C110.651 19.6901 109.626 19.4233 108.748 18.8895C107.887 18.3558 107.216 17.5983 106.734 16.617C106.252 15.6356 106.011 14.4822 106.011 13.1565C106.011 11.8308 106.252 10.6773 106.734 9.696C107.216 8.71467 107.887 7.96575 108.748 7.44926C109.626 6.91555 110.651 6.6487 111.821 6.6487C112.871 6.6487 113.793 6.89834 114.584 7.39761C115.394 7.87967 115.936 8.52529 116.211 9.33446L116.005 9.23116L116.263 6.90695H120.033C119.965 7.47509 119.913 8.05184 119.879 8.63719C119.844 9.20533 119.827 9.76486 119.827 10.3158V19.2253C119.827 21.3429 119.233 22.9612 118.045 24.0803C116.857 25.2166 115.135 25.7847 112.88 25.7847ZM112.983 16.7461C113.896 16.7461 114.619 16.4362 115.153 15.8164C115.686 15.1966 115.953 14.31 115.953 13.1565C115.953 12.003 115.686 11.125 115.153 10.5224C114.619 9.9026 113.896 9.5927 112.983 9.5927C112.036 9.5927 111.288 9.9026 110.737 10.5224C110.203 11.125 109.936 12.003 109.936 13.1565C109.936 14.31 110.203 15.1966 110.737 15.8164C111.288 16.4362 112.036 16.7461 112.983 16.7461ZM127.053 20.2841C125.917 20.2841 124.918 20.0086 124.057 19.4577C123.196 18.9068 122.525 18.1234 122.043 17.1076C121.561 16.0919 121.32 14.8695 121.32 13.4406C121.32 12.0288 121.561 10.8151 122.043 9.7993C122.525 8.78353 123.196 8.00879 124.057 7.47509C124.918 6.92416 125.917 6.6487 127.053 6.6487C128.103 6.6487 129.041 6.90695 129.868 7.42344C130.711 7.92271 131.262 8.60276 131.521 9.46358H131.236L131.546 6.90695H135.291C135.239 7.47509 135.188 8.05184 135.136 8.63719C135.102 9.20533 135.084 9.76486 135.084 10.3158V20H131.211L131.185 17.5467H131.495C131.219 18.3731 130.668 19.0359 129.842 19.5352C129.016 20.0344 128.086 20.2841 127.053 20.2841ZM128.241 17.3401C129.136 17.3401 129.859 17.0216 130.41 16.3846C130.961 15.7476 131.236 14.7662 131.236 13.4406C131.236 12.1149 130.961 11.1422 130.41 10.5224C129.859 9.9026 129.136 9.5927 128.241 9.5927C127.346 9.5927 126.622 9.9026 126.072 10.5224C125.521 11.1422 125.245 12.1149 125.245 13.4406C125.245 14.7662 125.512 15.7476 126.046 16.3846C126.597 17.0216 127.328 17.3401 128.241 17.3401Z" fill="#672EBB"/>
</svg>
