<?xml version="1.0" standalone="no"?>
<!DOCTYPE svg PUBLIC "-//W3C//DTD SVG 20010904//EN"
 "http://www.w3.org/TR/2001/REC-SVG-20010904/DTD/svg10.dtd">
<svg version="1.0" xmlns="http://www.w3.org/2000/svg"
 width="225.000000pt" height="225.000000pt" viewBox="0 0 225.000000 225.000000"
 preserveAspectRatio="xMidYMid meet">

<g transform="translate(0.000000,225.000000) scale(0.100000,-0.100000)"
fill="#000000" stroke="none">
<path d="M0 1125 l0 -1125 1125 0 1125 0 0 1125 0 1125 -1125 0 -1125 0 0
-1125z m1294 879 c236 -61 409 -284 410 -529 0 -44 -6 -105 -13 -135 -47 -191
-208 -356 -396 -406 -78 -21 -96 -16 -33 10 176 74 275 194 286 350 6 86 -14
88 -39 4 -9 -31 -28 -72 -43 -91 -27 -36 -129 -97 -141 -85 -4 4 11 24 34 46
28 26 41 47 41 65 0 30 -11 34 -31 11 -7 -8 -43 -35 -80 -59 -56 -36 -72 -54
-101 -106 -45 -87 -77 -104 -188 -104 -102 0 -170 24 -170 60 0 47 33 117 76
159 54 55 98 70 173 62 71 -8 103 7 112 53 4 18 12 38 18 44 16 16 13 38 -6
53 -16 11 -16 13 9 19 24 6 27 11 25 43 -2 31 1 37 21 40 29 4 28 26 -5 98
-26 58 -28 77 -23 212 2 77 -28 144 -80 180 l-33 22 58 0 c31 0 85 -7 119 -16z
m-219 -30 c28 -31 41 -97 26 -137 -16 -42 -13 -87 9 -159 33 -104 26 -128 -36
-128 -20 0 -24 -5 -24 -28 0 -37 -17 -52 -59 -52 l-34 0 22 -24 23 -25 -21
-13 c-15 -9 -21 -23 -21 -50 0 -55 -27 -78 -90 -78 -58 0 -90 -24 -117 -87
-13 -33 -16 -35 -25 -19 -6 10 -8 45 -6 77 4 49 10 65 35 92 45 48 56 74 64
162 4 44 11 90 14 103 6 16 3 22 -9 22 -20 0 -41 -33 -56 -87 -15 -59 -30 -54
-30 10 0 85 16 125 76 184 80 81 71 98 -21 38 -61 -41 -116 -116 -142 -195
-13 -41 -18 -86 -18 -177 0 -68 -3 -123 -6 -123 -13 0 -32 119 -32 195 0 203
121 397 302 488 91 46 141 49 176 11z m-735 -1184 l0 -70 35 0 c29 0 35 -4 35
-20 0 -19 -5 -21 -57 -18 l-58 3 -3 74 c-3 87 0 101 28 101 18 0 20 -6 20 -70z
m269 44 c63 -53 26 -154 -56 -154 -41 0 -93 46 -93 82 0 52 45 98 97 98 12 0
35 -12 52 -26z m241 11 c50 -26 29 -50 -32 -38 -23 5 -34 2 -45 -12 -19 -27
-16 -42 12 -61 33 -22 49 -10 29 22 l-16 24 41 0 41 0 0 -40 c0 -45 -18 -60
-73 -60 -82 0 -119 101 -56 154 35 30 58 32 99 11z m262 -13 c10 -10 21 -35
25 -55 5 -31 1 -40 -25 -67 -60 -60 -152 -25 -152 59 0 32 6 44 32 66 26 22
39 26 67 21 19 -3 43 -14 53 -24z m223 3 c14 -13 25 -31 25 -40 0 -23 -45 -65
-70 -65 -15 0 -20 -6 -20 -25 0 -18 -5 -25 -20 -25 -19 0 -20 7 -20 90 l0 90
40 0 c30 0 47 -7 65 -25z m225 0 c0 -22 -4 -25 -35 -25 -19 0 -35 -4 -35 -10
0 -5 14 -10 30 -10 23 0 30 -4 30 -20 0 -16 -7 -20 -30 -20 -20 0 -30 -5 -30
-15 0 -10 11 -15 35 -15 28 0 35 -4 35 -20 0 -18 -7 -20 -60 -20 l-60 0 0 90
0 90 60 0 c57 0 60 -1 60 -25z m227 -9 c32 -38 30 -80 -6 -117 -25 -24 -37
-29 -80 -29 l-51 0 0 91 0 91 57 -4 c46 -4 61 -10 80 -32z m158 -56 c0 -81 -1
-85 -22 -88 -22 -3 -23 -1 -23 88 0 89 1 91 23 88 21 -3 22 -7 22 -88z m-1055
-265 l0 -65 30 0 c23 0 30 -4 30 -20 0 -18 -7 -20 -55 -20 l-55 0 0 85 c0 84
0 85 25 85 24 0 25 -2 25 -65z m271 -22 l38 -83 -25 0 c-13 0 -27 7 -30 15 -4
9 -19 15 -39 15 -20 0 -35 -6 -39 -15 -3 -8 -16 -15 -30 -15 l-25 0 37 85 c48
111 61 111 113 -2z m224 67 c12 -13 15 -27 11 -44 -3 -14 -2 -28 4 -31 15 -9
12 -36 -7 -57 -12 -13 -30 -18 -70 -18 l-53 0 0 85 0 85 48 0 c36 0 54 -5 67
-20z"/>
<path d="M522 798 c-19 -19 -14 -56 9 -68 16 -9 26 -8 45 5 27 17 29 27 14 56
-12 21 -50 25 -68 7z"/>
<path d="M1010 791 c-15 -29 -13 -39 14 -56 31 -21 66 -5 66 28 0 46 -59 66
-80 28z"/>
<path d="M1270 795 c0 -8 9 -15 20 -15 11 0 20 7 20 15 0 8 -9 15 -20 15 -11
0 -20 -7 -20 -15z"/>
<path d="M1690 770 c0 -38 2 -40 30 -40 31 0 51 24 42 50 -7 20 -22 30 -49 30
-20 0 -23 -5 -23 -40z"/>
<path d="M1096 485 c-3 -9 0 -15 9 -15 9 0 12 6 9 15 -4 8 -7 15 -9 15 -2 0
-5 -7 -9 -15z"/>
<path d="M1310 520 c0 -5 12 -10 26 -10 14 0 23 4 19 10 -3 6 -15 10 -26 10
-10 0 -19 -4 -19 -10z"/>
<path d="M1310 450 c0 -5 11 -10 25 -10 14 0 25 5 25 10 0 6 -11 10 -25 10
-14 0 -25 -4 -25 -10z"/>
</g>
</svg>
