<?xml version="1.0" standalone="no"?>
<!DOCTYPE svg PUBLIC "-//W3C//DTD SVG 20010904//EN"
 "http://www.w3.org/TR/2001/REC-SVG-20010904/DTD/svg10.dtd">
<svg version="1.0" xmlns="http://www.w3.org/2000/svg"
 width="524.000000pt" height="96.000000pt" viewBox="0 0 524.000000 96.000000"
 preserveAspectRatio="xMidYMid meet">

<g transform="translate(0.000000,96.000000) scale(0.100000,-0.100000)"
fill="#000000" stroke="none">
<path d="M38 945 l32 -14 0 -221 0 -221 -32 -14 c-30 -13 -14 -14 161 -12
l195 2 18 60 c9 32 14 62 11 65 -3 3 -8 -1 -11 -9 -3 -8 -19 -30 -36 -48 -28
-31 -39 -36 -113 -45 -45 -6 -93 -8 -107 -4 l-26 6 0 213 c0 116 4 218 9 225
4 7 21 17 37 22 21 6 2 8 -71 9 -95 0 -98 -1 -67 -14z"/>
<path d="M4788 946 l32 -15 0 -219 c0 -230 -1 -234 -45 -245 -11 -2 37 -5 106
-6 162 -1 216 14 280 78 89 88 95 240 13 331 -59 65 -117 83 -279 87 -130 3
-138 2 -107 -11z m223 -21 c104 -37 151 -106 151 -220 0 -131 -61 -200 -195
-220 -91 -14 -87 -24 -87 225 0 165 3 220 13 223 24 10 75 7 118 -8z"/>
<path d="M2035 793 c-31 -8 -83 -51 -100 -83 -24 -46 -20 -140 8 -180 32 -48
69 -72 120 -77 55 -7 107 10 138 43 l24 26 -50 -27 c-67 -36 -117 -30 -162 18
-54 59 -54 170 0 232 47 55 150 39 180 -27 12 -29 34 -40 23 -12 -3 9 -6 34
-6 56 0 32 -3 38 -13 29 -9 -7 -24 -8 -48 -1 -35 10 -79 11 -114 3z"/>
<path d="M3173 785 c-26 -18 -36 -59 -25 -100 8 -27 4 -34 -40 -76 -37 -35
-48 -52 -48 -76 0 -71 74 -102 153 -64 l45 22 36 -22 c42 -24 75 -20 106 13
20 22 19 41 -2 20 -19 -19 -62 -14 -87 9 -21 20 -21 22 -5 47 9 14 26 41 37
60 11 18 29 38 41 42 15 6 3 9 -39 8 -33 0 -52 -2 -42 -5 25 -7 22 -52 -7 -88
l-24 -29 -31 49 c-37 58 -37 62 -11 70 24 8 60 52 60 74 0 49 -73 77 -117 46z
m68 -5 c29 -16 25 -64 -8 -90 -31 -24 -41 -17 -49 32 -4 25 -1 39 11 51 19 20
21 20 46 7z m-37 -209 c20 -29 36 -57 36 -62 0 -12 -44 -29 -72 -29 -56 0 -79
82 -36 127 12 13 25 22 29 21 4 -2 23 -27 43 -57z"/>
<path d="M4156 790 c-133 -42 -143 -250 -15 -318 120 -64 251 34 237 179 -8
83 -61 136 -143 144 -28 2 -63 0 -79 -5z m126 -38 c47 -44 58 -152 22 -224
-32 -63 -106 -78 -154 -30 -63 63 -64 195 -3 257 41 40 90 39 135 -3z"/>
<path d="M4515 786 c-37 -16 -82 -67 -91 -102 -4 -14 -4 -49 -2 -78 8 -94 68
-150 163 -150 91 0 155 62 162 157 10 130 -116 224 -232 173z m123 -22 c37
-25 52 -67 52 -142 0 -87 -26 -132 -84 -147 -51 -12 -84 7 -113 65 -36 70 -26
168 22 216 29 28 89 32 123 8z"/>
<path d="M473 777 c16 -11 17 -30 15 -157 l-3 -144 -25 -7 c-15 -4 8 -7 55 -7
47 0 70 3 55 7 l-25 7 -3 144 c-2 127 -1 146 15 157 14 11 8 13 -42 13 -50 0
-56 -2 -42 -13z"/>
<path d="M628 780 c21 -9 22 -13 22 -155 0 -142 -1 -146 -22 -155 -16 -6 22
-9 114 -9 l136 -1 11 31 c17 49 13 57 -13 24 -23 -28 -28 -30 -98 -30 l-73 0
-3 73 -3 72 51 0 c42 0 55 -5 75 -26 l25 -27 0 58 0 58 -25 -27 c-22 -23 -32
-27 -73 -24 l-47 3 0 65 0 65 69 -1 c39 0 71 -5 73 -11 2 -6 10 -19 18 -29 13
-18 14 -16 15 19 l0 37 -137 -1 c-93 0 -131 -3 -115 -9z"/>
<path d="M953 778 c16 -12 17 -29 15 -158 -3 -144 -3 -144 -28 -152 -14 -4 27
-6 90 -5 91 2 122 6 143 20 50 32 48 103 -3 134 l-30 17 27 22 c34 27 36 76 4
107 -19 19 -34 22 -129 25 -91 3 -104 2 -89 -10z m169 -19 c13 -7 18 -22 18
-49 0 -47 -27 -70 -82 -70 l-38 0 0 63 c0 35 3 67 7 71 9 8 69 -1 95 -15z m13
-164 c46 -45 27 -98 -40 -113 -70 -14 -75 -10 -75 69 l0 69 45 0 c35 0 52 -6
70 -25z"/>
<path d="M1283 780 c15 -10 17 -29 17 -156 0 -141 -1 -145 -22 -154 -17 -6 -2
-9 52 -8 46 0 65 3 50 7 -23 6 -25 12 -28 70 -2 35 1 68 6 73 6 6 36 -23 76
-71 64 -78 68 -81 109 -81 38 0 40 1 20 13 -31 17 -125 135 -118 147 3 6 12
10 19 10 27 0 56 40 56 79 0 63 -23 76 -149 79 -79 2 -102 0 -88 -8z m169 -27
c23 -21 23 -75 1 -95 -10 -8 -37 -18 -60 -22 l-43 -6 0 69 c0 46 4 71 13 75
20 8 69 -3 89 -21z"/>
<path d="M1623 779 c15 -9 17 -27 17 -155 0 -141 -1 -145 -22 -154 -16 -6 22
-9 114 -9 75 -1 139 2 141 7 3 4 8 23 12 42 l7 35 -25 -30 c-24 -28 -29 -30
-99 -30 l-73 0 0 70 0 70 53 0 c45 -1 57 -5 73 -25 l19 -25 0 60 0 60 -19 -25
c-16 -20 -28 -24 -73 -25 l-53 0 0 65 0 65 69 -1 c39 0 71 -5 73 -11 2 -6 10
-19 18 -29 13 -18 14 -16 15 19 l0 37 -132 0 c-95 -1 -128 -4 -115 -11z"/>
<path d="M2273 783 c9 -2 17 -11 17 -19 1 -8 1 -68 1 -134 0 -66 0 -127 -1
-135 0 -9 -10 -20 -22 -25 -17 -6 -3 -9 52 -9 41 1 68 3 60 6 -29 10 -40 37
-40 95 l0 58 80 0 80 0 0 -70 c0 -64 -2 -72 -22 -80 -17 -6 -3 -9 52 -9 67 -1
72 1 50 12 -24 12 -25 16 -28 137 -3 141 1 167 26 173 9 3 -12 5 -48 6 -49 0
-61 -2 -47 -10 13 -8 17 -24 17 -74 l0 -65 -80 0 -80 0 0 48 c0 62 9 90 29 95
9 3 -13 5 -49 5 -36 0 -57 -2 -47 -5z"/>
<path d="M2620 748 l0 -43 20 33 c17 28 25 32 60 32 l41 0 -3 -142 c-3 -141
-3 -143 -28 -155 -22 -11 -16 -13 55 -12 49 1 70 4 55 8 l-25 7 -3 148 -3 147
43 -3 c32 -2 45 -8 54 -26 19 -38 24 -37 24 6 l0 42 -145 0 -145 0 0 -42z"/>
<path d="M3568 783 c18 -7 42 -60 92 -200 24 -68 47 -123 50 -123 3 0 21 43
40 96 19 52 37 97 41 100 4 2 24 -43 45 -101 25 -69 41 -100 46 -91 4 8 28 76
53 152 28 86 54 146 66 157 21 17 20 17 -27 16 -27 -1 -41 -3 -31 -6 9 -2 17
-12 17 -21 0 -17 -59 -182 -70 -195 -6 -7 -80 177 -80 200 0 6 8 14 18 16 9 3
-12 5 -48 6 -60 1 -63 0 -43 -14 12 -8 26 -30 32 -48 10 -28 7 -43 -15 -97
-14 -36 -27 -66 -29 -68 -5 -5 -75 182 -75 200 0 9 6 19 13 21 6 3 -15 5 -48
5 -33 0 -54 -2 -47 -5z"/>
<path d="M1313 303 c719 -2 1895 -2 2615 0 719 1 130 2 -1308 2 -1438 0 -2027
-1 -1307 -2z"/>
<path d="M47 98 c-14 -31 -28 -67 -31 -80 l-7 -23 17 22 c23 32 79 32 89 1 3
-13 8 -18 11 -13 2 6 -9 42 -25 80 l-29 69 -25 -56z m33 3 c0 -5 3 -16 6 -25
4 -12 0 -16 -16 -16 -16 0 -20 4 -16 16 3 9 6 20 6 25 0 5 5 9 10 9 6 0 10 -4
10 -9z"/>
<path d="M312 78 c3 -78 11 -87 63 -74 36 9 55 34 55 71 0 46 -32 75 -82 75
l-39 0 3 -72z m92 36 c35 -35 6 -94 -46 -94 -27 0 -28 1 -28 55 0 54 0 55 29
55 16 0 37 -7 45 -16z"/>
<path d="M510 74 c0 -47 4 -73 10 -69 6 3 10 37 10 76 0 39 -4 69 -10 69 -6 0
-10 -32 -10 -76z"/>
<path d="M610 81 c0 -39 5 -73 10 -76 6 -4 10 8 10 29 0 32 3 35 33 39 l32 4
-32 1 c-28 2 -33 6 -33 27 0 22 4 25 34 25 19 0 38 5 41 10 4 6 -13 10 -44 10
l-51 0 0 -69z"/>
<path d="M780 73 c0 -42 3 -73 7 -69 4 4 7 19 8 34 0 23 5 28 35 33 l35 6 -35
4 c-27 3 -36 9 -38 27 -3 20 1 22 37 22 23 0 41 5 41 10 0 6 -20 10 -45 10
l-45 0 0 -77z"/>
<path d="M950 75 l0 -75 45 0 c25 0 45 5 45 10 0 6 -18 10 -40 10 -36 0 -40 3
-40 24 0 20 6 25 33 29 l32 4 -32 1 c-28 2 -33 6 -33 27 0 22 4 25 34 25 19 0
38 5 41 10 4 6 -12 10 -39 10 l-46 0 0 -75z"/>
<path d="M1110 80 c0 -40 4 -70 10 -70 6 0 10 11 10 25 0 34 33 33 49 -1 6
-15 14 -24 17 -21 3 3 1 14 -5 25 -8 15 -7 23 4 32 18 15 20 51 3 68 -7 7 -29
12 -50 12 l-38 0 0 -70z m84 37 c9 -15 7 -21 -8 -33 -36 -26 -56 -18 -56 22 0
32 2 35 26 32 15 -2 32 -11 38 -21z"/>
<path d="M1290 75 l0 -75 45 0 c25 0 45 5 45 10 0 6 -16 10 -35 10 -30 0 -35
3 -35 24 0 20 6 25 33 29 l32 4 -32 1 c-28 2 -33 6 -33 27 0 22 4 25 34 25 19
0 38 5 41 10 4 6 -13 10 -44 10 l-51 0 0 -75z"/>
<path d="M1462 73 l1 -78 6 58 6 58 48 -57 47 -56 -2 78 c-1 63 -2 68 -5 26
-2 -29 -8 -52 -12 -50 -5 2 -27 25 -50 51 l-41 48 2 -78z"/>
<path d="M1645 140 c3 -5 15 -10 26 -10 17 0 19 -7 19 -66 0 -41 4 -63 10 -59
6 3 10 33 10 66 0 45 3 59 14 59 8 0 18 5 21 10 4 6 -15 10 -50 10 -35 0 -54
-4 -50 -10z"/>
<path d="M1920 145 c0 -12 54 -135 60 -135 9 0 62 131 56 138 -3 3 -15 -18
-27 -46 -12 -29 -25 -52 -29 -52 -5 0 -16 23 -26 50 -10 28 -22 50 -26 50 -4
0 -8 -2 -8 -5z"/>
<path d="M2110 81 c0 -39 5 -73 10 -76 6 -4 10 22 10 69 0 44 -4 76 -10 76 -6
0 -10 -30 -10 -69z"/>
<path d="M2220 135 c-19 -23 -7 -47 30 -60 51 -17 48 -48 -5 -55 -35 -5 -37
-7 -17 -14 30 -10 68 0 76 20 8 22 -10 51 -36 60 -37 11 -50 25 -37 40 7 8 22
11 41 7 22 -4 29 -3 24 5 -10 17 -61 15 -76 -3z"/>
<path d="M2380 80 c0 -40 4 -70 10 -70 6 0 10 30 10 70 0 40 -4 70 -10 70 -6
0 -10 -30 -10 -70z"/>
<path d="M2515 138 c-28 -16 -35 -28 -35 -64 0 -62 75 -89 120 -44 27 27 25
66 -5 95 -26 27 -49 31 -80 13z m69 -24 c37 -37 1 -103 -49 -90 -14 4 -31 17
-37 31 -23 52 46 100 86 59z"/>
<path d="M2702 73 c1 -62 2 -67 5 -25 2 28 7 52 10 52 4 0 26 -21 50 -47 l42
-48 -1 75 c-1 61 -2 65 -5 23 -2 -29 -7 -53 -11 -52 -4 0 -26 23 -49 50 l-43
50 2 -78z"/>
<path d="M3026 129 c-54 -42 -23 -123 46 -121 63 2 89 72 43 117 -30 30 -54
31 -89 4z m78 -15 c37 -37 1 -103 -49 -90 -15 4 -30 17 -36 33 -20 53 45 98
85 57z"/>
<path d="M3222 74 c1 -62 2 -68 5 -26 2 28 7 52 10 52 4 0 26 -21 50 -47 l42
-48 -1 75 c-1 73 -1 73 -7 21 l-6 -55 -47 53 -48 53 2 -78z"/>
<path d="M3532 73 c0 -43 3 -63 5 -46 6 44 36 45 58 2 19 -37 31 -33 14 4 -10
21 -9 29 5 42 33 34 6 75 -50 75 l-34 0 2 -77z m78 32 c0 -23 -17 -35 -51 -35
-30 0 -27 57 4 62 34 6 47 -2 47 -27z"/>
<path d="M3710 75 l0 -75 45 0 c25 0 45 5 45 10 0 6 -18 10 -40 10 -36 0 -40
3 -40 24 0 20 6 25 33 29 l32 4 -32 1 c-28 2 -33 6 -33 27 0 23 4 25 40 25 22
0 40 5 40 10 0 6 -20 10 -45 10 l-45 0 0 -75z"/>
<path d="M3896 80 c-16 -39 -25 -74 -22 -78 4 -3 9 4 13 16 8 31 67 31 83 1 7
-11 13 -19 16 -17 5 5 -44 129 -55 141 -4 4 -20 -24 -35 -63z m54 -12 c0 -4
-9 -8 -20 -8 -21 0 -24 8 -13 36 6 16 7 16 20 -2 7 -10 13 -21 13 -26z"/>
<path d="M4062 78 c3 -72 3 -73 32 -76 16 -2 33 1 39 7 8 8 2 11 -21 11 l-32
0 0 65 c0 38 -4 65 -10 65 -7 0 -10 -27 -8 -72z"/>
<path d="M4322 78 l3 -73 43 -3 c25 -2 42 1 42 7 0 6 -16 11 -35 11 -30 0 -35
3 -35 24 0 20 6 25 33 29 l32 4 -32 1 c-28 2 -33 6 -33 27 0 22 4 25 35 25 19
0 35 5 35 10 0 6 -20 10 -45 10 l-46 0 3 -72z"/>
<path d="M4490 135 c-18 -21 -5 -44 34 -60 60 -25 56 -51 -9 -57 -39 -4 -39
-4 -12 -12 39 -12 77 7 77 38 0 19 -9 27 -40 40 -58 23 -49 64 11 49 15 -4 20
-3 15 5 -10 17 -61 15 -76 -3z"/>
<path d="M4650 140 c0 -5 9 -10 20 -10 18 0 20 -7 20 -66 0 -41 4 -63 10 -59
6 3 10 33 10 66 0 52 2 59 20 59 11 0 20 5 20 10 0 6 -22 10 -50 10 -27 0 -50
-4 -50 -10z"/>
<path d="M4826 82 c-16 -40 -27 -75 -24 -78 4 -3 9 4 13 15 9 29 71 30 80 1 6
-19 26 -29 24 -12 0 4 -15 38 -32 76 l-33 69 -28 -71z m47 -2 c4 -16 0 -20
-19 -20 -21 0 -23 2 -12 25 12 27 23 26 31 -5z"/>
<path d="M4965 140 c3 -5 15 -10 25 -10 17 0 20 -9 23 -67 l3 -68 2 68 c2 64
3 67 27 67 14 0 25 5 25 10 0 6 -25 10 -56 10 -34 0 -53 -4 -49 -10z"/>
<path d="M5140 75 l0 -75 45 0 c25 0 45 5 45 10 0 6 -18 10 -41 10 -36 0 -40
2 -37 23 2 16 11 23 33 26 l30 4 -30 6 c-21 4 -31 13 -33 29 -3 20 1 22 37 22
23 0 41 5 41 10 0 6 -20 10 -45 10 l-45 0 0 -75z"/>
</g>
</svg>
