<?xml version="1.0" standalone="no"?>
<!DOCTYPE svg PUBLIC "-//W3C//DTD SVG 20010904//EN"
 "http://www.w3.org/TR/2001/REC-SVG-20010904/DTD/svg10.dtd">
<svg version="1.0" xmlns="http://www.w3.org/2000/svg"
 width="250.000000pt" height="250.000000pt" viewBox="0 0 250.000000 250.000000"
 preserveAspectRatio="xMidYMid meet">

<g transform="translate(0.000000,250.000000) scale(0.100000,-0.100000)"
fill="#000000" stroke="none">
<path d="M1048 2193 c7 -3 16 -2 19 1 4 3 -2 6 -13 5 -11 0 -14 -3 -6 -6z"/>
<path d="M1235 2182 c-5 -4 -10 -16 -10 -26 0 -11 -6 -21 -12 -23 -8 -3 -13 5
-13 21 0 15 -6 26 -13 26 -9 0 -12 -10 -9 -31 4 -29 7 -31 35 -25 38 8 39 9
35 40 -2 15 -7 22 -13 18z"/>
<path d="M1513 2183 c3 -2 -1 -23 -9 -45 -17 -49 -17 -48 0 -48 8 0 21 20 29
44 15 42 14 44 -5 49 -11 3 -18 3 -15 0z"/>
<path d="M973 2156 c7 -14 14 -20 18 -14 5 7 19 4 42 -11 41 -25 47 -26 47 -6
0 8 -4 15 -9 15 -5 0 -8 8 -6 18 1 9 0 11 -2 5 -6 -17 -15 -16 -39 2 -10 8
-29 15 -41 15 -19 0 -20 -3 -10 -24z"/>
<path d="M1270 2155 c0 -16 6 -25 15 -25 8 0 15 9 15 20 0 13 5 18 15 14 8 -4
15 -1 15 5 0 6 -13 11 -30 11 -25 0 -30 -4 -30 -25z"/>
<path d="M1340 2164 c-11 -12 -11 -18 2 -30 14 -14 16 -13 20 15 5 34 -3 39
-22 15z"/>
<path d="M1384 2148 c-1 -17 3 -27 10 -25 16 5 19 44 4 49 -9 4 -13 -4 -14
-24z"/>
<path d="M1094 2155 c-3 -8 -3 -19 1 -25 11 -18 25 -11 25 15 0 27 -17 34 -26
10z"/>
<path d="M1130 2160 c0 -5 7 -10 15 -10 8 0 15 5 15 10 0 6 -7 10 -15 10 -8 0
-15 -4 -15 -10z"/>
<path d="M895 2145 c-3 -8 -7 -21 -9 -29 -3 -8 0 -16 5 -18 5 -2 11 -13 11
-25 1 -12 7 -19 15 -16 17 7 16 21 -2 57 -19 35 -19 37 2 29 11 -4 14 -3 9 5
-10 17 -26 15 -31 -3z"/>
<path d="M1435 2140 c3 -5 16 -10 28 -9 21 0 21 1 2 9 -28 12 -37 12 -30 0z"/>
<path d="M1620 2136 c0 -9 5 -16 10 -16 6 0 10 4 10 9 0 6 -4 13 -10 16 -5 3
-10 -1 -10 -9z"/>
<path d="M1594 2091 c-11 -26 -9 -29 23 -40 19 -7 36 -11 37 -9 12 14 24 47
19 52 -12 11 -22 6 -28 -14 -3 -11 -13 -20 -21 -20 -12 0 -12 4 -4 20 11 20 6
40 -8 40 -4 0 -12 -13 -18 -29z"/>
<path d="M990 2100 c0 -5 5 -10 11 -10 5 0 7 5 4 10 -3 6 -8 10 -11 10 -2 0
-4 -4 -4 -10z"/>
<path d="M1567 2093 c-4 -3 -7 -11 -7 -17 0 -6 5 -5 12 2 6 6 9 14 7 17 -3 3
-9 2 -12 -2z"/>
<path d="M820 2075 c-7 -8 -10 -22 -6 -30 7 -19 50 -19 66 0 15 18 6 45 -15
45 -13 0 -14 -4 -5 -21 7 -11 9 -23 6 -26 -10 -10 -37 20 -32 34 7 17 1 17
-14 -2z"/>
<path d="M1686 2054 c-4 -14 -4 -29 -1 -33 8 -8 36 30 32 43 -7 21 -25 16 -31
-10z"/>
<path d="M716 2061 c-6 -9 7 -34 40 -80 2 -1 7 0 13 4 12 7 5 23 -27 64 -13
16 -21 20 -26 12z"/>
<path d="M1155 2050 c-185 -20 -348 -96 -482 -223 -139 -132 -222 -296 -244
-482 -45 -382 197 -734 586 -851 80 -24 106 -27 235 -27 129 0 155 3 235 27
389 117 631 469 586 851 -34 287 -218 527 -497 647 -115 49 -284 73 -419 58z
m43 -76 c-2 -31 -7 -40 -25 -42 -32 -5 -42 36 -14 59 11 9 21 23 21 30 0 9 3
10 11 2 6 -6 9 -28 7 -49z m178 24 c-3 -13 -6 -33 -6 -45 0 -18 -6 -23 -25
-23 -15 0 -28 7 -32 16 -8 21 10 49 31 48 9 -1 16 4 16 12 0 8 5 14 11 14 7 0
9 -9 5 -22z m-118 -27 c4 -26 -13 -42 -35 -34 -19 7 -16 30 4 37 15 6 15 8 3
17 -12 8 -11 9 5 7 12 -2 21 -12 23 -27z m44 17 c-7 -7 -12 -20 -12 -30 0 -10
-5 -18 -11 -18 -6 0 -8 7 -5 16 3 9 6 22 6 30 0 8 8 14 17 14 13 0 14 -3 5
-12z m-169 -34 c5 -29 -8 -33 -16 -4 -8 30 -30 25 -25 -5 3 -14 1 -25 -3 -25
-5 0 -9 6 -9 14 0 8 -3 21 -6 29 -3 10 1 17 13 19 28 7 41 -1 46 -28z m284 18
c-14 -3 -16 -7 -7 -17 7 -8 9 -19 5 -25 -8 -13 -35 -13 -35 1 0 5 5 7 11 3 8
-4 9 0 4 15 -8 27 1 42 23 33 16 -6 16 -7 -1 -10z m123 -12 c0 -11 -4 -20 -10
-20 -5 0 -10 -5 -10 -11 0 -6 7 -9 15 -5 17 6 21 -9 5 -19 -6 -4 -8 -10 -5
-15 3 -5 -8 -4 -25 1 -19 7 -30 18 -30 30 0 10 4 19 9 19 5 0 11 9 14 20 3 11
12 20 21 20 9 0 16 -8 16 -20z m-478 -16 c10 -21 9 -27 -3 -35 -8 -5 -20 -7
-26 -4 -7 2 -13 0 -13 -5 0 -20 -27 -9 -38 15 -16 34 -15 42 3 42 8 0 15 -5
14 -11 -3 -23 1 -36 11 -36 6 0 10 7 10 15 0 8 5 15 11 15 5 0 7 -4 4 -10 -3
-5 -1 -10 4 -10 13 0 13 3 5 24 -3 8 -12 12 -21 9 -11 -4 -14 -2 -9 5 12 20
36 13 48 -14z m-111 -18 c-9 -11 -7 -15 10 -19 25 -7 20 -31 -7 -34 -10 -2
-13 0 -6 3 17 8 15 24 -3 24 -15 0 -21 21 -8 33 13 13 25 7 14 -7z m705 -40
c9 -23 -26 -67 -49 -64 -11 2 -23 10 -25 18 -5 13 -3 13 12 1 9 -8 19 -12 21
-9 3 3 -1 11 -10 18 -11 9 -12 17 -4 31 11 22 47 25 55 5z m-790 -31 c-9 -7
-13 -15 -9 -18 3 -4 13 -1 21 6 13 10 14 9 10 -3 -2 -8 -16 -15 -29 -15 -18 0
-25 6 -27 24 -4 28 17 45 36 28 12 -9 11 -13 -2 -22z m554 -6 c179 -49 322
-164 399 -320 77 -156 88 -293 36 -455 -62 -197 -234 -356 -445 -411 -85 -22
-235 -22 -320 0 -211 55 -383 214 -445 411 -52 162 -41 299 36 455 75 153 213
265 389 318 102 30 246 31 350 2z m270 13 c0 -4 -5 -13 -12 -20 -20 -20 1 -26
22 -7 23 21 26 9 6 -18 -12 -15 -18 -16 -35 -7 -25 13 -25 14 -9 40 13 20 28
27 28 12z m-925 -22 c5 -8 11 -7 21 1 11 9 19 8 34 -6 11 -10 20 -23 20 -28 0
-6 -9 -2 -20 8 -24 22 -39 12 -22 -15 20 -33 -1 -22 -31 15 -15 19 -23 35 -18
35 5 0 13 -5 16 -10z m974 -29 c-22 -30 -48 -44 -33 -18 10 17 48 55 52 51 2
-1 -6 -16 -19 -33z m-984 -10 c-3 -5 5 -17 17 -25 16 -11 18 -16 7 -16 -14 0
-59 35 -59 45 0 3 9 5 21 5 11 0 18 -4 14 -9z m1055 -4 c8 3 1 -9 -16 -26 -32
-34 -64 -34 -64 0 0 22 29 40 50 30 8 -5 22 -6 30 -4z m14 -43 c9 -3 16 -15
16 -25 0 -22 11 -24 28 -7 6 6 14 9 17 6 3 -3 -10 -17 -29 -32 -34 -25 -36
-26 -56 -9 -23 20 -26 43 -8 61 14 14 12 14 32 6z m-1139 -24 c-3 -5 3 -10 14
-10 24 0 27 -17 7 -42 -15 -20 -41 -24 -51 -8 -4 6 -11 7 -17 4 -7 -4 -6 -9 2
-14 7 -4 9 -13 5 -20 -6 -9 -9 -9 -16 1 -6 10 -9 10 -9 2 0 -19 20 -26 37 -11
14 11 16 11 11 -2 -2 -8 -14 -16 -25 -18 -12 -2 -24 -10 -27 -19 -9 -21 3 -31
14 -13 6 8 10 10 10 4 0 -23 -27 -36 -50 -24 -27 14 -22 44 8 48 19 3 21 6 11
18 -9 11 -8 18 6 34 9 10 14 24 10 29 -3 6 1 11 9 11 8 0 20 9 26 20 6 11 15
20 21 20 6 0 7 -4 4 -10z m1195 -48 c0 -11 -41 -34 -48 -28 -3 4 3 13 14 21
21 16 34 19 34 7z m28 -34 c11 -14 10 -19 -7 -35 -19 -18 -19 -18 11 -18 34 0
43 -12 28 -35 -9 -13 -12 -13 -24 3 -18 24 -29 21 -21 -5 5 -15 4 -20 -3 -13
-19 19 -24 65 -7 71 29 11 15 26 -17 19 l-33 -6 30 20 c16 11 30 19 30 18 0
-1 6 -9 13 -19z m-1298 -109 c11 -8 7 -9 -17 -5 -36 6 -47 -12 -13 -21 29 -8
25 -21 -5 -15 -15 2 -25 0 -25 -7 0 -6 6 -11 14 -11 8 0 18 -4 21 -10 9 -15
-18 -12 -40 3 -16 13 -17 17 -4 45 15 33 41 41 69 21z m1358 -7 c2 -7 -2 -10
-12 -6 -11 4 -16 1 -16 -11 0 -20 -31 -17 -38 5 -4 12 -3 13 10 2 13 -10 16
-9 21 9 6 22 28 22 35 1z m53 -82 c5 0 9 -4 9 -10 0 -5 -7 -7 -15 -4 -8 4 -15
2 -15 -3 0 -5 -17 -7 -37 -5 l-36 5 29 12 c16 8 35 11 42 9 8 -2 18 -4 23 -4z
m-23 -39 c23 -14 10 -46 -21 -49 -31 -4 -46 20 -27 43 14 17 29 19 48 6z
m-1420 -17 c6 -2 12 -14 11 -26 0 -21 -1 -21 -8 -4 -7 18 -8 18 -14 3 -7 -19
-52 -23 -62 -7 -3 6 -3 19 0 30 6 19 21 20 73 4z m1439 -59 c0 -10 -6 -14 -14
-10 -8 3 -23 5 -34 5 -10 0 -19 5 -19 10 0 6 15 10 33 10 24 0 34 -5 34 -15z
m-1457 -5 c0 -5 -11 -10 -25 -10 -14 0 -25 -4 -25 -10 0 -5 11 -10 25 -10 14
0 25 -4 25 -10 0 -5 -11 -10 -25 -10 -29 0 -50 31 -33 48 15 15 58 16 58 2z
m-17 -67 c-13 -2 -35 -2 -50 0 -16 2 -5 4 22 4 28 0 40 -2 28 -4z m1472 -28
c0 -29 -35 -33 -36 -3 -1 23 -1 23 -8 -2 -11 -34 -4 -43 28 -35 20 5 23 4 14
-6 -6 -6 -9 -19 -5 -28 5 -13 3 -14 -10 -3 -8 7 -22 10 -30 7 -10 -4 -13 4
-12 32 2 64 2 65 32 61 19 -2 27 -9 27 -23z m-1477 -2 c-17 -3 -28 -11 -28
-20 0 -11 6 -14 25 -9 14 4 25 2 25 -4 0 -17 -57 -12 -64 6 -9 24 2 34 37 33
30 -2 31 -2 5 -6z m27 -63 c-3 -5 -21 -10 -38 -9 -27 0 -29 2 -12 9 28 12 57
12 50 0z m8 -32 c11 -34 -27 -54 -40 -21 -6 15 -7 15 -14 -3 -7 -18 -8 -18 -8
3 -1 30 52 48 62 21z m1427 -7 c7 -13 7 -22 0 -26 -5 -3 -10 1 -10 9 0 9 -9
16 -20 16 -11 0 -20 -5 -20 -12 0 -6 -3 -9 -6 -5 -4 3 -4 13 -1 22 9 21 44 19
57 -4z m-22 -40 c19 -12 11 -45 -12 -49 -15 -3 -18 0 -13 17 3 12 1 21 -4 21
-5 0 -9 -4 -9 -10 0 -5 -5 -10 -10 -10 -7 0 -7 6 0 20 11 21 27 25 48 11z
m-1392 -23 c7 -22 -3 -38 -22 -38 -8 0 -14 -4 -14 -10 0 -5 -6 -7 -14 -4 -21
8 -9 31 16 30 11 -1 23 5 26 13 3 10 -3 12 -26 7 -20 -5 -31 -3 -35 7 -4 10 4
13 29 13 23 -1 36 -7 40 -18z m1375 -40 c22 -6 39 -15 39 -19 0 -4 -20 -1 -45
8 -25 8 -45 17 -45 19 0 6 10 5 51 -8z m29 -49 c0 -4 -18 0 -40 8 -22 9 -40
19 -40 24 0 4 18 0 40 -8 22 -9 40 -19 40 -24z m-50 -4 c16 -19 5 -47 -17 -43
-11 2 -17 11 -15 23 3 16 2 17 -12 6 -19 -16 -22 -1 -4 17 16 16 33 15 48 -3z
m-1306 -10 c3 -8 1 -15 -4 -15 -6 0 -10 6 -11 13 0 6 -4 2 -9 -10 -11 -27 -40
-31 -40 -5 0 13 2 14 9 4 6 -10 10 -9 14 7 6 24 32 28 41 6z m20 -42 c4 -11 1
-22 -8 -29 -18 -12 -21 -34 -7 -34 6 0 13 5 16 10 3 6 14 10 23 10 10 0 2 -10
-20 -25 -40 -27 -64 -33 -51 -12 4 6 6 20 5 29 -2 9 7 22 18 28 12 6 19 14 17
17 -3 2 -19 -3 -36 -11 -44 -23 -50 -19 -11 9 40 30 46 30 54 8z m1266 -18 c0
-24 -27 -37 -49 -25 -12 6 -21 15 -21 21 0 6 8 6 21 -1 26 -15 40 -3 16 14
-25 19 -21 27 8 14 14 -6 25 -17 25 -23z m-50 -40 c14 -16 7 -45 -11 -45 -9 0
-9 4 0 14 16 19 -2 30 -32 20 -19 -6 -20 -5 -8 10 17 20 35 21 51 1z m-1184
-44 c-16 -16 -25 -34 -22 -40 15 -23 -10 -9 -28 16 -16 22 -17 25 -3 20 9 -3
26 2 39 13 36 30 45 23 14 -9z m1148 4 c19 -19 10 -45 -16 -45 -15 0 -18 4
-13 22 6 17 4 20 -9 15 -16 -6 -22 4 -9 16 11 11 31 8 47 -8z m-395 -239 c16
-29 8 -46 -22 -46 -16 0 -18 3 -9 12 9 9 7 14 -5 23 -17 13 -10 35 11 35 7 0
18 -11 25 -24z m-339 5 c0 -5 19 -8 43 -7 39 1 42 -1 39 -23 -1 -17 2 -22 13
-17 9 3 15 0 15 -9 0 -23 -41 -13 -51 12 -5 13 -11 23 -14 23 -4 0 -3 -5 1
-11 8 -14 -14 -29 -32 -22 -7 2 -10 12 -7 21 5 15 4 14 -8 -1 -12 -15 -17 -16
-32 -5 -22 17 -13 48 14 48 10 0 19 -4 19 -9z m283 -13 c13 -20 2 -48 -18 -48
-9 0 -14 4 -11 9 3 5 0 11 -7 14 -8 3 -19 -4 -25 -14 -19 -30 -38 -23 -37 14
0 28 3 32 27 32 14 0 30 3 34 8 10 10 25 4 37 -15z m-123 -23 c0 -19 -4 -35
-9 -35 -10 0 -21 57 -13 65 14 13 22 2 22 -30z"/>
<path d="M1160 1960 c0 -13 5 -20 13 -17 6 2 12 10 12 17 0 7 -6 15 -12 18 -8
2 -13 -5 -13 -18z"/>
<path d="M1330 1959 c0 -24 23 -21 28 4 2 10 -3 17 -12 17 -10 0 -16 -9 -16
-21z"/>
<path d="M1230 1960 c0 -5 5 -10 10 -10 6 0 10 5 10 10 0 6 -4 10 -10 10 -5 0
-10 -4 -10 -10z"/>
<path d="M1515 1960 c-3 -5 -1 -10 4 -10 6 0 11 5 11 10 0 6 -2 10 -4 10 -3 0
-8 -4 -11 -10z"/>
<path d="M1490 1921 c0 -6 5 -13 10 -16 6 -3 10 1 10 9 0 9 -4 16 -10 16 -5 0
-10 -4 -10 -9z"/>
<path d="M1615 1880 c-8 -13 4 -32 16 -25 12 8 12 35 0 35 -6 0 -13 -4 -16
-10z"/>
<path d="M1173 1799 c-60 -38 -130 -168 -154 -288 -8 -35 -20 -66 -27 -69 -25
-9 -173 41 -253 85 -3 2 -18 -22 -32 -54 -33 -74 -51 -188 -42 -267 6 -62 46
-191 64 -209 6 -6 29 -1 66 17 62 29 193 68 205 61 4 -3 11 -26 15 -52 17
-116 102 -275 164 -307 36 -19 34 -23 52 156 7 71 14 126 16 125 1 -2 10 -68
19 -148 9 -79 17 -145 19 -147 10 -10 70 35 100 76 40 55 90 176 100 245 4 26
11 49 15 52 12 7 143 -32 205 -61 37 -18 60 -23 66 -17 18 18 58 147 64 209 9
79 -9 193 -42 267 -14 32 -29 56 -32 54 -80 -44 -228 -94 -253 -85 -7 3 -19
34 -27 69 -25 123 -95 251 -157 290 -19 12 -37 19 -39 17 -3 -3 -11 -64 -20
-138 -8 -73 -17 -135 -20 -138 -3 -3 -5 1 -5 8 0 38 -24 247 -29 257 -5 9 -15
7 -38 -8z m124 -474 l42 -120 0 123 c1 115 2 122 21 122 19 0 20 -7 20 -185
l0 -185 -24 0 c-22 0 -28 11 -64 118 l-40 117 -1 -117 c-1 -111 -2 -118 -21
-118 -19 0 -20 7 -20 186 l0 185 23 -3 c19 -3 28 -21 64 -123z m163 -30 l0
-145 45 7 c45 6 45 6 45 -25 0 -33 0 -33 -97 -47 l-43 -7 0 181 0 181 25 0 25
0 0 -145z m-306 113 c20 -28 20 -75 1 -112 -14 -26 -14 -31 1 -47 10 -11 16
-35 16 -64 0 -63 -29 -95 -86 -95 -90 0 -86 -8 -86 170 0 117 3 160 13 163 6
3 38 6 69 6 48 1 59 -2 72 -21z m-254 -2 c0 -2 20 -69 45 -148 25 -78 45 -147
45 -151 0 -5 -10 -7 -22 -5 -15 2 -26 13 -33 33 -16 48 -24 55 -65 55 -35 0
-39 -3 -45 -30 -5 -21 -13 -30 -26 -30 -10 0 -19 5 -19 11 0 20 72 244 82 257
10 11 38 17 38 8z m763 -9 c46 -20 60 -42 60 -92 0 -55 -16 -75 -59 -75 l-33
0 -3 -57 c-3 -51 -6 -58 -25 -61 -23 -3 -23 -3 -23 147 l0 151 25 0 c14 0 40
-6 58 -13z"/>
<path d="M1057 1383 c-4 -3 -7 -24 -7 -45 0 -38 1 -39 33 -36 27 2 33 8 35 31
2 16 -2 35 -9 43 -12 15 -41 19 -52 7z"/>
<path d="M1052 1188 c3 -38 6 -43 30 -46 21 -3 30 2 39 21 16 36 -3 67 -42 67
-29 0 -30 -1 -27 -42z"/>
<path d="M867 1305 c-19 -68 -20 -65 7 -65 29 0 31 11 12 55 -11 27 -13 28
-19 10z"/>
<path d="M1630 1316 c0 -32 3 -36 26 -36 23 0 25 3 22 33 -2 24 -8 33 -25 35
-20 3 -23 -1 -23 -32z"/>
<path d="M1038 1786 c-110 -45 -208 -116 -260 -188 l-20 -28 64 -29 c87 -39
138 -53 142 -38 35 131 72 219 113 268 14 16 24 32 22 34 -3 2 -30 -7 -61 -19z"/>
<path d="M1400 1801 c0 -4 9 -16 19 -25 34 -31 82 -143 117 -273 4 -15 55 -1
142 38 l64 29 -21 29 c-34 48 -115 115 -179 149 -71 38 -142 64 -142 53z"/>
<path d="M857 989 c-43 -17 -81 -38 -84 -46 -8 -19 76 -105 151 -154 52 -34
164 -84 172 -77 1 2 -15 29 -36 61 -22 33 -52 99 -69 150 -16 51 -35 93 -43
94 -7 1 -48 -11 -91 -28z"/>
<path d="M1535 1008 c-41 -133 -63 -189 -95 -236 -21 -31 -37 -58 -36 -60 8
-7 120 43 172 77 75 49 159 135 151 154 -5 14 -151 77 -177 77 -6 0 -12 -6
-15 -12z"/>
<path d="M1745 1779 c-4 -6 -4 -13 -1 -16 8 -8 36 5 36 17 0 13 -27 13 -35 -1z"/>
<path d="M1790 1720 c0 -15 31 -33 40 -24 5 5 -1 14 -16 21 -13 6 -24 8 -24 3z"/>
<path d="M654 1699 c-2 -4 3 -12 11 -19 12 -10 18 -10 30 0 8 7 15 16 15 20 0
9 -50 8 -56 -1z"/>
<path d="M585 1590 c-3 -5 -1 -10 4 -10 6 0 11 5 11 10 0 6 -2 10 -4 10 -3 0
-8 -4 -11 -10z"/>
<path d="M1955 1390 c-8 -12 20 -24 35 -15 5 3 10 10 10 16 0 12 -37 12 -45
-1z"/>
<path d="M517 1384 c-9 -10 2 -24 19 -24 8 0 14 7 14 15 0 15 -21 21 -33 9z"/>
<path d="M1995 1230 c-3 -5 -1 -10 4 -10 6 0 11 5 11 10 0 6 -2 10 -4 10 -3 0
-8 -4 -11 -10z"/>
<path d="M540 1130 c0 -5 5 -10 11 -10 5 0 7 5 4 10 -3 6 -8 10 -11 10 -2 0
-4 -4 -4 -10z"/>
<path d="M1920 949 c0 -5 5 -7 10 -4 6 3 10 8 10 11 0 2 -4 4 -10 4 -5 0 -10
-5 -10 -11z"/>
<path d="M1815 800 c-3 -5 -1 -10 4 -10 6 0 11 5 11 10 0 6 -2 10 -4 10 -3 0
-8 -4 -11 -10z"/>
<path d="M1730 2042 c0 -5 -9 -18 -21 -31 -17 -18 -18 -25 -9 -36 7 -8 17 -15
23 -15 6 0 3 6 -8 13 -12 9 -14 16 -7 21 6 4 20 -2 31 -13 20 -20 20 -20 23 2
2 15 11 23 28 26 25 3 25 3 6 -18 -13 -15 -16 -25 -9 -32 7 -7 15 -2 26 15 16
24 16 26 -9 45 -28 22 -44 20 -44 -5 0 -15 -12 -19 -23 -7 -4 3 0 15 10 25 15
17 15 18 0 18 -10 0 -17 -4 -17 -8z"/>
<path d="M700 2005 c-10 -12 -10 -18 0 -30 7 -8 19 -15 26 -15 12 0 12 4 -1
23 -8 13 -12 27 -8 30 3 4 4 7 1 7 -3 0 -11 -7 -18 -15z"/>
<path d="M660 1980 c0 -5 5 -10 10 -10 6 0 10 5 10 10 0 6 -4 10 -10 10 -5 0
-10 -4 -10 -10z"/>
<path d="M1840 1974 c0 -8 -7 -17 -16 -21 -13 -5 -12 -9 7 -29 27 -29 41 -30
62 -6 12 14 14 21 5 30 -8 8 -15 5 -29 -11 -9 -12 -21 -19 -25 -15 -4 5 0 16
9 26 21 23 21 28 2 36 -9 3 -15 0 -15 -10z"/>
<path d="M637 1963 c-4 -3 0 -15 10 -25 18 -20 10 -39 -9 -20 -15 15 -45 15
-54 0 -4 -6 -3 -8 3 -5 6 4 18 -2 28 -13 10 -12 13 -20 7 -20 -7 0 -12 4 -12
8 0 4 -9 8 -20 9 -17 2 -18 -1 -7 -18 17 -27 26 -24 77 23 25 22 40 37 33 34
-7 -4 -17 3 -23 14 -11 21 -22 25 -33 13z"/>
<path d="M1900 1960 c0 -5 7 -10 15 -10 8 0 15 5 15 10 0 6 -7 10 -15 10 -8 0
-15 -4 -15 -10z"/>
<path d="M1913 1883 c1 -18 6 -32 11 -30 16 5 17 22 2 42 -14 19 -15 18 -13
-12z"/>
<path d="M1940 1901 c0 -6 4 -13 10 -16 6 -3 7 1 4 9 -7 18 -14 21 -14 7z"/>
<path d="M1885 1880 c3 -5 8 -10 11 -10 2 0 4 5 4 10 0 6 -5 10 -11 10 -5 0
-7 -4 -4 -10z"/>
<path d="M554 1851 c25 -27 12 -40 -15 -15 -21 19 -21 19 -18 -6 5 -30 30 -37
53 -14 23 23 16 48 -14 53 -25 3 -25 3 -6 -18z"/>
<path d="M1957 1852 c-18 -20 -22 -42 -8 -42 5 0 11 7 15 15 3 8 12 15 20 15
7 0 16 7 20 15 8 22 -27 19 -47 -3z"/>
<path d="M2030 1830 c0 -5 5 -10 10 -10 6 0 10 5 10 10 0 6 -4 10 -10 10 -5 0
-10 -4 -10 -10z"/>
<path d="M1982 1810 c-13 -11 -18 -21 -12 -25 11 -7 50 12 50 25 0 18 -16 18
-38 0z"/>
<path d="M446 1813 c-3 -4 12 -15 34 -25 22 -10 40 -23 40 -28 0 -14 -18 -22
-25 -11 -8 14 -63 40 -69 33 -11 -11 -5 -19 32 -43 l38 -25 17 22 c24 32 22
64 -3 64 -11 0 -20 5 -20 10 0 11 -33 14 -44 3z"/>
<path d="M2003 1764 c-7 -19 7 -46 28 -52 8 -2 5 3 -6 12 -20 16 -20 16 -1 31
22 17 38 11 29 -10 -3 -8 0 -15 6 -15 15 0 14 23 -1 38 -17 17 -48 15 -55 -4z"/>
<path d="M2131 1704 c-1 -12 -60 -41 -73 -36 -10 2 -10 -2 -2 -22 5 -14 11
-13 46 5 43 22 54 20 44 -7 -4 -10 -12 -14 -22 -10 -14 5 -15 4 -4 -9 14 -17
36 -20 45 -5 3 5 -3 29 -14 52 -10 24 -20 38 -20 32z"/>
<path d="M400 1671 c0 -5 13 -14 29 -19 23 -8 31 -7 35 3 2 8 -4 15 -17 19
-32 8 -47 7 -47 -3z"/>
<path d="M386 1643 c-11 -12 -6 -20 19 -31 33 -15 32 -15 39 5 4 10 4 14 0 10
-4 -4 -17 -1 -30 7 -12 8 -24 12 -28 9z"/>
<path d="M2136 1591 c-4 -6 -16 -11 -27 -11 -21 0 -23 -8 -10 -29 6 -9 11 -10
15 -2 11 17 36 13 36 -6 0 -12 3 -14 11 -6 8 8 7 18 -4 38 -9 18 -17 24 -21
16z"/>
<path d="M365 1580 c-3 -5 -1 -10 4 -10 6 0 11 -4 11 -10 0 -5 -7 -7 -15 -4
-8 4 -15 1 -15 -5 0 -6 7 -11 15 -11 8 0 15 -4 15 -10 0 -5 7 -10 15 -10 8 0
15 5 15 10 0 6 -4 10 -10 10 -5 0 -10 6 -10 14 0 8 7 13 16 12 9 0 19 4 21 9
4 14 -54 18 -62 5z"/>
<path d="M335 1499 c-9 -28 17 -55 42 -44 16 7 15 9 -9 18 -27 11 -38 27 -18
27 6 0 10 5 10 10 0 18 -19 10 -25 -11z"/>
<path d="M2125 1509 c-10 -15 -4 -18 27 -12 15 3 25 9 22 14 -7 12 -41 11 -49
-2z"/>
<path d="M2135 1461 c7 -7 21 -11 29 -8 27 11 18 26 -14 24 -25 -2 -27 -4 -15
-16z"/>
<path d="M290 1436 c0 -9 5 -16 10 -16 6 0 10 4 10 9 0 6 -4 13 -10 16 -5 3
-10 -1 -10 -9z"/>
<path d="M320 1426 c0 -8 13 -16 30 -18 36 -5 42 16 8 26 -33 8 -38 8 -38 -8z"/>
<path d="M2107 1433 c-4 -3 -7 -13 -7 -22 0 -11 3 -10 15 5 8 10 15 14 15 7 0
-6 3 -19 7 -29 5 -14 3 -16 -11 -11 -10 4 -15 3 -11 -3 14 -23 35 -9 36 23 0
28 1 29 9 11 4 -12 15 -24 24 -27 25 -10 19 -27 -9 -27 -14 0 -25 -6 -25 -14
0 -9 8 -12 25 -8 20 3 24 1 19 -12 -3 -9 -1 -16 5 -16 13 0 15 69 2 89 -5 7
-14 10 -20 7 -6 -4 -11 -2 -11 3 0 6 7 11 16 11 8 0 12 5 9 10 -7 11 -78 14
-88 3z"/>
<path d="M310 1370 c0 -16 3 -29 8 -29 24 4 42 -2 36 -13 -4 -7 -3 -8 4 -4 7
4 12 16 12 27 0 14 -7 19 -25 19 -18 0 -23 4 -19 15 4 8 1 15 -5 15 -6 0 -11
-13 -11 -30z"/>
<path d="M317 1323 c-4 -3 -7 -11 -7 -17 0 -6 5 -5 12 2 6 6 9 14 7 17 -3 3
-9 2 -12 -2z"/>
<path d="M2157 1304 c-4 -4 -7 -31 -7 -61 0 -50 1 -53 25 -53 14 0 25 -4 25
-10 0 -5 -11 -10 -24 -10 -13 0 -26 -6 -29 -13 -3 -9 2 -13 15 -13 12 1 23 -5
26 -13 3 -10 -2 -12 -22 -7 -19 5 -26 3 -26 -9 0 -10 10 -15 29 -15 25 0 29 4
35 38 10 60 7 69 -19 76 -14 4 -25 11 -25 16 0 6 11 10 25 10 14 0 25 5 25 10
0 6 -11 10 -25 10 -14 0 -25 5 -25 11 0 6 6 9 13 6 18 -7 44 9 33 20 -5 4 -11
2 -13 -5 -4 -10 -8 -9 -17 3 -6 9 -15 13 -19 9z"/>
<path d="M338 1292 c-31 -4 -37 -19 -12 -29 8 -3 23 2 32 10 19 20 15 23 -20
19z"/>
<path d="M309 1234 c-11 -14 -9 -15 16 -12 16 1 30 9 33 16 6 18 -33 15 -49
-4z"/>
<path d="M310 1164 c0 -39 1 -40 30 -36 41 6 37 -8 -13 -43 -31 -22 -37 -31
-24 -33 9 -2 30 6 46 17 15 11 31 18 34 15 3 -3 1 13 -5 36 -9 33 -15 40 -31
38 -11 -2 -22 3 -24 10 -3 7 5 12 21 12 14 0 26 6 26 13 0 7 -13 12 -30 12
-28 0 -30 -2 -30 -41z"/>
<path d="M2130 1075 c0 -13 48 -30 57 -21 9 9 -7 24 -32 28 -16 3 -25 1 -25
-7z"/>
<path d="M348 1043 c7 -3 16 -2 19 1 4 3 -2 6 -13 5 -11 0 -14 -3 -6 -6z"/>
<path d="M2117 1029 c-3 -10 -2 -18 2 -17 21 2 41 -3 41 -13 0 -6 -12 -9 -27
-7 -36 4 -41 -18 -6 -25 32 -6 38 -2 46 33 5 22 2 28 -22 37 -25 9 -30 8 -34
-8z"/>
<path d="M364 976 c-4 -10 -3 -26 3 -35 14 -21 47 -20 51 2 3 14 0 16 -22 7
-15 -5 -26 -6 -26 -1 0 5 4 11 10 13 6 2 6 9 0 18 -8 12 -10 12 -16 -4z"/>
<path d="M2086 943 c-8 -20 -8 -19 12 -19 9 -1 23 -3 31 -5 28 -8 21 19 -8 29
-24 8 -31 7 -35 -5z"/>
<path d="M411 911 c-17 -13 -21 -24 -17 -38 5 -14 1 -23 -10 -27 -12 -5 -14
-10 -7 -17 8 -8 56 6 92 28 1 1 0 6 -4 12 -4 8 -12 8 -27 0 -13 -7 -23 -8 -30
-1 -7 7 -2 15 15 24 16 8 23 18 19 25 -5 8 -14 7 -31 -6z"/>
<path d="M2155 921 c-6 -11 9 -23 19 -14 9 9 7 23 -3 23 -6 0 -12 -4 -16 -9z"/>
<path d="M2070 900 c0 -14 39 -32 52 -24 7 5 5 11 -7 21 -22 15 -45 17 -45 3z"/>
<path d="M2044 856 c-3 -8 -13 -12 -24 -9 -10 3 -21 0 -24 -6 -4 -7 -1 -8 8
-5 18 7 20 -4 6 -26 -9 -13 -11 -13 -20 0 -7 11 -10 11 -10 2 0 -7 7 -15 15
-19 18 -6 55 23 55 44 0 11 4 11 20 3 11 -6 25 -8 32 -4 7 4 2 12 -13 20 -31
17 -38 17 -45 0z"/>
<path d="M403 812 c-9 -6 -6 -18 14 -47 14 -22 28 -42 30 -44 2 -3 9 1 15 7 9
9 8 12 -4 12 -32 0 -27 17 12 36 27 14 36 24 30 34 -6 10 -15 9 -43 -9 -43
-26 -51 -26 -44 -1 3 11 4 20 4 20 -1 0 -8 -4 -14 -8z"/>
<path d="M2041 806 c-13 -15 -6 -56 9 -56 16 0 17 25 1 38 -14 12 -13 13 7 9
14 -4 22 -1 19 6 -5 17 -23 19 -36 3z"/>
<path d="M520 685 c-10 -11 -10 -19 -2 -27 15 -15 44 -2 40 19 -4 23 -22 27
-38 8z"/>
<path d="M1962 687 c-15 -17 1 -42 23 -33 18 6 17 37 -1 43 -6 2 -16 -2 -22
-10z"/>
<path d="M599 654 c-1 -5 -1 -13 0 -18 1 -5 -8 -19 -20 -32 -32 -34 -13 -52
20 -20 34 33 47 23 19 -14 -28 -38 -14 -59 19 -28 l26 23 -17 -26 c-15 -24
-13 -39 5 -39 5 0 16 11 25 25 13 20 14 28 4 40 -6 8 -9 18 -6 23 5 8 -14 29
-56 61 -10 7 -19 10 -19 5z"/>
<path d="M1888 653 c0 -5 -2 -12 -3 -18 -2 -5 -3 -18 -4 -27 0 -10 -7 -18 -15
-18 -7 0 -19 -7 -26 -15 -11 -13 -9 -20 10 -40 27 -29 48 -19 31 13 -7 14 -8
23 -1 27 5 3 10 1 10 -4 0 -18 46 -12 63 7 16 17 15 20 -16 50 -33 32 -46 38
-49 25z"/>
<path d="M1793 543 c-7 -2 -13 -11 -13 -19 0 -9 4 -13 9 -10 5 4 7 -3 4 -14
-8 -30 24 -37 50 -12 20 21 20 22 2 42 -18 20 -29 23 -52 13z"/>
<path d="M1732 533 c-6 -3 -10 -8 -7 -13 7 -11 -20 -61 -28 -53 -6 5 -38 -7
-65 -23 -2 -2 4 -16 14 -32 20 -34 51 -34 33 0 -6 11 -8 22 -6 25 3 2 10 -5
17 -16 13 -25 34 -17 27 10 -4 15 -2 16 13 6 14 -8 25 -8 44 3 l26 13 -22 36
c-27 46 -31 49 -46 44z m28 -74 c0 -6 -4 -7 -10 -4 -5 3 -10 11 -10 16 0 6 5
7 10 4 6 -3 10 -11 10 -16z"/>
<path d="M681 516 c-15 -18 2 -56 26 -56 13 0 14 2 2 17 -13 15 -12 15 8 5 18
-10 23 -9 28 8 3 11 3 24 0 30 -9 15 -51 12 -64 -4z"/>
<path d="M780 478 c-11 -18 -20 -39 -20 -45 0 -19 17 -16 29 5 9 14 10 13 11
-10 0 -40 21 -34 47 12 24 41 14 68 -12 34 -13 -18 -14 -17 -15 9 0 36 -16 34
-40 -5z"/>
<path d="M860 430 l-21 -40 26 -12 c26 -12 49 -3 27 11 -10 6 -10 15 -2 35 22
60 0 64 -30 6z"/>
<path d="M929 423 c-15 -40 -16 -65 -1 -70 6 -3 12 2 12 11 0 9 11 16 28 18
39 4 44 44 7 58 -35 13 -34 14 -46 -17z m41 -13 c0 -5 -5 -10 -11 -10 -5 0 -7
5 -4 10 3 6 8 10 11 10 2 0 4 -4 4 -10z"/>
<path d="M1512 414 c-6 -12 -4 -26 7 -45 17 -30 51 -39 51 -14 0 8 -5 15 -11
15 -18 0 -5 33 14 36 15 2 16 0 6 -12 -18 -22 3 -37 39 -29 29 6 30 8 20 36
-11 31 -34 37 -71 18 -16 -9 -22 -9 -25 0 -5 16 -20 14 -30 -5z"/>
<path d="M1453 413 c-21 -8 -15 -44 7 -50 23 -6 27 -23 5 -23 -8 0 -15 -4 -15
-10 0 -15 36 -12 50 5 15 18 6 45 -15 45 -8 0 -15 5 -15 10 0 6 5 10 10 10 6
0 10 5 10 10 0 10 -16 12 -37 3z"/>
<path d="M1032 398 c-15 -15 -15 -51 0 -66 14 -14 58 -16 58 -3 0 5 3 16 6 25
4 12 0 16 -16 16 -16 0 -20 -4 -16 -15 3 -8 1 -15 -5 -15 -21 0 -4 45 19 48
12 2 22 8 22 13 0 13 -54 11 -68 -3z"/>
<path d="M1110 391 c0 -10 -3 -33 -6 -50 -5 -24 -3 -31 8 -31 10 0 18 14 22
38 9 54 8 62 -9 62 -8 0 -15 -8 -15 -19z"/>
<path d="M1378 405 c-2 -3 -2 -24 1 -47 7 -48 31 -65 31 -21 0 53 -15 85 -32
68z"/>
<path d="M1220 349 l0 -50 33 3 c28 3 32 7 35 36 3 27 0 32 -17 32 -12 0 -21
7 -21 15 0 8 -7 15 -15 15 -11 0 -15 -12 -15 -51z m45 -8 c3 -5 1 -12 -5 -16
-5 -3 -10 1 -10 9 0 18 6 21 15 7z"/>
<path d="M1147 363 c-12 -11 -8 -40 8 -53 24 -20 55 -3 55 31 0 25 -4 29 -28
29 -16 0 -32 -3 -35 -7z m37 -28 c-4 -8 -8 -15 -10 -15 -2 0 -4 7 -4 15 0 8 4
15 10 15 5 0 7 -7 4 -15z"/>
<path d="M1305 361 c3 -6 12 -9 18 -5 7 3 4 -1 -7 -10 -26 -22 -14 -48 21 -43
23 3 28 9 28 33 0 26 -4 29 -34 32 -22 2 -31 0 -26 -7z"/>
</g>
</svg>
