<?xml version="1.0" standalone="no"?>
<!DOCTYPE svg PUBLIC "-//W3C//DTD SVG 20010904//EN"
 "http://www.w3.org/TR/2001/REC-SVG-20010904/DTD/svg10.dtd">
<svg version="1.0" xmlns="http://www.w3.org/2000/svg"
 width="250.000000pt" height="250.000000pt" viewBox="0 0 250.000000 250.000000"
 preserveAspectRatio="xMidYMid meet">

<g transform="translate(0.000000,250.000000) scale(0.100000,-0.100000)"
fill="#000000" stroke="none">
<path d="M1130 2140 c-157 -25 -334 -106 -453 -208 -279 -238 -389 -627 -276
-973 161 -491 700 -749 1189 -568 189 70 372 229 474 411 86 155 129 369 107
540 -49 381 -314 684 -681 778 -96 24 -272 34 -360 20z m414 -50 c170 -57 318
-161 422 -293 30 -38 54 -72 54 -76 0 -3 -20 -17 -45 -31 -43 -24 -64 -50 -27
-35 35 15 52 17 52 8 0 -5 -12 -15 -26 -21 -14 -7 -22 -17 -19 -22 4 -6 18 -2
36 11 25 17 28 24 18 36 -10 12 -10 16 2 24 23 15 27 11 58 -53 40 -85 68
-171 80 -249 78 -477 -235 -931 -704 -1024 -119 -23 -316 -17 -423 14 -302 88
-539 330 -624 636 -18 66 -22 105 -21 230 0 133 3 160 27 238 94 313 328 540
638 623 84 22 109 24 248 21 144 -3 162 -6 254 -37z"/>
<path d="M1300 2095 c0 -8 -6 -15 -14 -15 -21 0 -38 -27 -31 -50 4 -14 15 -20
36 -20 28 0 29 1 29 50 0 28 -4 50 -10 50 -5 0 -10 -7 -10 -15z m0 -50 c0 -26
-14 -33 -25 -15 -9 14 1 40 15 40 5 0 10 -11 10 -25z"/>
<path d="M1190 2037 c0 -23 4 -36 10 -32 6 3 10 17 10 31 0 15 6 24 15 24 8 0
15 4 15 9 0 5 -11 8 -25 7 -22 -1 -25 -6 -25 -39z"/>
<path d="M1484 2068 c-5 -7 -9 -19 -9 -28 -1 -8 -5 -25 -9 -37 -6 -17 -3 -23
8 -23 9 0 15 3 14 8 -1 4 1 24 6 45 5 28 11 37 22 33 8 -3 14 -1 14 4 0 14
-37 12 -46 -2z"/>
<path d="M1110 2061 c-8 -6 -11 -14 -6 -18 5 -4 11 -2 13 5 3 6 9 12 15 12 6
0 8 -6 5 -14 -6 -15 18 -55 27 -45 3 3 2 18 -3 35 -8 31 -27 40 -51 25z"/>
<path d="M1392 2058 c-15 -15 -16 -45 -2 -53 6 -3 10 5 10 19 0 25 16 43 28
32 3 -4 1 -20 -5 -36 -9 -23 -8 -27 3 -23 19 7 28 42 14 58 -15 18 -32 19 -48
3z"/>
<path d="M950 2050 c0 -5 5 -10 11 -10 6 0 9 -9 6 -19 -3 -12 1 -22 9 -25 19
-7 18 -36 -1 -36 -8 0 -19 17 -26 40 -7 22 -18 40 -26 40 -8 0 -12 -6 -9 -12
2 -7 10 -30 17 -51 10 -31 16 -36 33 -31 12 4 27 11 34 16 17 14 15 48 -3 48
-9 0 -12 6 -8 16 3 9 0 20 -8 25 -19 12 -29 11 -29 -1z"/>
<path d="M1572 2013 c-11 -26 -18 -51 -16 -55 10 -15 22 -8 28 17 9 37 39 22
31 -16 -10 -45 12 -34 35 17 24 55 24 54 6 54 -7 0 -16 -9 -19 -20 -4 -14 -10
-18 -22 -14 -11 5 -15 14 -11 30 11 43 -12 34 -32 -13z"/>
<path d="M1027 2036 c-8 -19 8 -56 24 -56 6 0 7 5 4 11 -4 6 -10 22 -14 37 -6
22 -8 23 -14 8z"/>
<path d="M1063 2037 c4 -10 7 -28 7 -38 0 -11 5 -17 10 -14 16 10 12 41 -7 56
-15 12 -16 12 -10 -4z"/>
<path d="M1113 2015 c-7 -21 4 -32 19 -17 9 9 9 12 -1 12 -7 0 -9 5 -6 10 3 6
4 10 0 10 -3 0 -8 -7 -12 -15z"/>
<path d="M1680 1951 c0 -16 -3 -38 -7 -48 -6 -15 -4 -16 9 -5 21 17 29 70 11
76 -9 4 -13 -4 -13 -23z"/>
<path d="M823 1953 c-22 -15 -22 -16 -6 -44 19 -31 40 -40 28 -11 -4 9 -9 26
-12 37 -4 16 0 14 20 -9 13 -15 27 -24 30 -19 3 5 -4 21 -16 35 -21 25 -23 26
-44 11z"/>
<path d="M1130 1963 c-270 -47 -512 -271 -580 -539 -27 -105 -27 -254 0 -360
61 -236 237 -429 466 -508 381 -132 799 62 934 433 73 201 63 388 -30 576
-126 256 -373 407 -659 404 -58 -1 -117 -4 -131 -6z m275 -18 c229 -48 415
-194 511 -402 46 -98 64 -180 64 -299 0 -402 -315 -714 -723 -714 -282 0 -526
156 -648 415 -128 272 -74 579 141 796 179 181 415 255 655 204z"/>
<path d="M1342 1763 c5 -7 8 -19 5 -28 -4 -8 -2 -17 2 -20 5 -2 11 10 13 28 3
26 0 33 -14 33 -12 0 -14 -4 -6 -13z"/>
<path d="M882 1745 c-7 -14 -12 -27 -12 -28 0 -1 14 -2 30 -2 17 0 30 1 30 2
0 9 -25 53 -30 53 -4 0 -12 -11 -18 -25z m28 -5 c0 -5 -4 -10 -10 -10 -5 0
-10 5 -10 10 0 6 5 10 10 10 6 0 10 -4 10 -10z"/>
<path d="M1268 1759 c-25 -14 -23 -49 2 -49 16 0 20 7 20 30 0 17 -1 30 -2 30
-2 0 -11 -5 -20 -11z m12 -24 c0 -8 -4 -15 -10 -15 -5 0 -10 7 -10 15 0 8 5
15 10 15 6 0 10 -7 10 -15z"/>
<path d="M953 1753 c-7 -3 -13 -19 -12 -36 0 -18 3 -26 6 -19 2 6 11 12 18 12
7 0 15 6 18 14 7 17 -13 35 -30 29z m13 -30 c-10 -10 -19 5 -10 18 6 11 8 11
12 0 2 -7 1 -15 -2 -18z"/>
<path d="M1027 1740 c3 -11 1 -20 -5 -20 -6 0 -13 8 -15 18 -3 9 -5 2 -6 -15
-1 -32 0 -32 19 -16 21 19 26 38 11 47 -5 4 -7 -3 -4 -14z"/>
<path d="M1063 1743 c-3 -10 -8 -21 -10 -25 -2 -5 0 -8 5 -8 5 0 12 11 14 25
6 29 0 33 -9 8z"/>
<path d="M1093 1744 c-8 -21 13 -42 28 -27 13 13 5 43 -11 43 -6 0 -13 -7 -17
-16z m27 -9 c0 -8 -4 -15 -10 -15 -5 0 -10 7 -10 15 0 8 5 15 10 15 6 0 10 -7
10 -15z"/>
<path d="M1152 1737 c10 -24 13 -25 21 -12 5 9 6 19 3 22 -3 4 -6 0 -6 -7 0
-9 -5 -7 -15 6 -14 18 -14 17 -3 -9z"/>
<path d="M1200 1745 c-14 -17 -5 -35 18 -34 11 0 12 3 5 6 -7 2 -13 11 -13 19
0 9 5 12 12 8 7 -4 8 -3 4 4 -9 15 -11 15 -26 -3z"/>
<path d="M1392 1751 c-8 -5 -12 -16 -10 -25 2 -12 6 -10 15 9 6 14 10 25 10
25 -1 0 -8 -4 -15 -9z"/>
<path d="M1438 1733 c5 -21 7 -23 10 -9 2 10 0 22 -6 28 -6 6 -7 0 -4 -19z"/>
<path d="M1507 1754 c-4 -4 -7 -17 -6 -28 1 -18 2 -18 9 4 l7 25 12 -25 11
-25 -3 24 c-2 25 -18 37 -30 25z"/>
<path d="M1601 1753 c0 -4 4 -17 9 -28 8 -19 9 -19 9 2 1 12 -3 25 -9 28 -5 3
-10 3 -9 -2z"/>
<path d="M1633 1744 c-3 -8 0 -21 6 -27 9 -9 11 -8 6 4 -4 10 -2 20 4 24 7 4
11 -4 11 -19 0 -13 -6 -27 -12 -29 -8 -4 -7 -6 3 -6 20 -1 33 50 16 61 -18 12
-27 9 -34 -8z"/>
<path d="M1472 1730 c0 -14 2 -19 5 -12 2 6 2 18 0 25 -3 6 -5 1 -5 -13z"/>
<path d="M1552 1730 c0 -14 2 -19 5 -12 2 6 2 18 0 25 -3 6 -5 1 -5 -13z"/>
<path d="M1582 1730 c0 -14 2 -19 5 -12 2 6 2 18 0 25 -3 6 -5 1 -5 -13z"/>
<path d="M1415 1720 c3 -5 8 -10 11 -10 2 0 4 5 4 10 0 6 -5 10 -11 10 -5 0
-7 -4 -4 -10z"/>
<path d="M1090 1634 c-74 -13 -139 -23 -143 -24 -4 0 -19 -11 -32 -25 -24 -23
-25 -28 -25 -177 0 -174 13 -245 61 -340 42 -83 129 -168 215 -208 82 -40 119
-40 197 -2 122 60 198 151 249 296 26 76 28 91 28 247 0 211 11 198 -196 233
-178 30 -179 30 -354 0z m345 -19 c94 -16 156 -31 167 -42 16 -14 18 -34 18
-155 0 -76 -4 -138 -8 -138 -5 0 -87 16 -182 35 l-174 35 -145 -32 c-81 -17
-158 -33 -173 -36 l-28 -4 0 139 c0 122 2 142 18 156 17 15 262 64 333 66 14
1 92 -10 174 -24z m0 -321 c99 -20 182 -37 183 -39 4 -3 -17 -75 -21 -75 -1 0
-80 14 -176 30 l-174 30 -155 -30 c-85 -17 -158 -27 -162 -23 -4 4 -10 22 -13
39 l-6 31 167 36 c92 19 169 36 172 36 3 1 86 -15 185 -35z m-21 -104 c93 -16
172 -32 175 -35 12 -13 -65 -140 -115 -192 -54 -55 -163 -115 -209 -115 -35
-1 -144 54 -191 96 -63 54 -149 194 -131 212 3 3 256 57 297 63 3 1 81 -12
174 -29z"/>
<path d="M1197 1593 c-12 -11 -8 -25 5 -17 6 4 23 8 37 8 26 1 26 0 21 -51 -3
-28 -2 -49 2 -47 4 3 8 20 8 39 0 44 9 65 27 65 10 0 14 -9 13 -27 -4 -55 0
-93 10 -93 5 0 9 27 7 63 l-2 62 -61 3 c-33 1 -63 -1 -67 -5z"/>
<path d="M1230 1555 c0 -9 -7 -18 -15 -21 -8 -4 -15 -10 -15 -15 0 -4 7 -6 17
-2 13 5 15 2 11 -15 -4 -12 -2 -22 3 -22 5 0 9 20 9 45 0 25 -2 45 -5 45 -3 0
-5 -7 -5 -15z"/>
<path d="M999 1544 c-12 -15 -12 -16 10 -9 17 5 22 4 19 -6 -3 -8 -11 -14 -18
-14 -7 0 -15 -6 -18 -14 -3 -8 0 -11 7 -7 6 4 11 2 11 -4 0 -18 -30 -70 -40
-70 -5 0 -12 -11 -16 -25 -6 -26 9 -55 30 -55 6 0 3 7 -7 15 -27 20 -18 50 15
50 14 0 30 3 34 8 4 4 -1 7 -10 7 -27 0 -13 25 17 28 20 2 29 -3 40 -24 28
-53 26 -6 -3 62 -30 72 -47 86 -71 58z m45 -72 c-21 -5 -26 2 -18 22 6 15 7
15 20 -1 11 -15 10 -19 -2 -21z"/>
<path d="M1443 1553 c-7 -3 -13 -9 -13 -14 0 -6 4 -8 9 -5 5 4 16 3 24 0 16
-6 12 -32 -7 -47 -8 -6 -7 -10 2 -14 6 -2 12 -12 12 -21 0 -32 19 3 23 43 3
36 4 35 5 -12 2 -49 1 -52 -24 -55 -15 -2 -33 -12 -40 -24 -12 -17 -12 -23 2
-40 15 -19 15 -19 5 2 -14 29 1 48 33 40 22 -5 28 -2 35 16 5 13 6 29 4 36 -3
7 3 12 16 12 21 0 25 -20 8 -46 -4 -7 -1 -14 6 -16 27 -11 33 3 27 62 -3 33
-2 64 3 69 12 12 -17 21 -34 10 -10 -6 -10 -9 -1 -9 6 0 12 -11 12 -25 0 -18
-5 -25 -20 -25 -16 0 -20 7 -20 33 0 28 -3 32 -28 33 -15 1 -33 0 -39 -3z"/>
<path d="M1281 1503 c-1 -29 -4 -33 -29 -33 -18 0 -36 -9 -48 -22 l-19 -23 22
18 c16 14 30 17 51 12 36 -7 40 -1 31 45 l-6 35 -2 -32z"/>
<path d="M1200 1410 c0 -5 5 -10 11 -10 5 0 7 5 4 10 -3 6 -8 10 -11 10 -2 0
-4 -4 -4 -10z"/>
<path d="M1235 1140 c18 -19 17 -20 -1 -20 -11 0 -25 5 -30 10 -8 8 -15 6 -24
-5 -11 -13 -10 -15 3 -9 24 9 41 -5 24 -19 -18 -14 -28 -75 -14 -84 6 -3 21
-7 34 -9 21 -2 23 1 23 49 0 27 3 47 7 43 4 -4 6 -25 4 -46 -2 -31 1 -40 13
-41 25 -2 30 -4 44 -12 8 -5 12 -3 12 7 0 9 5 16 10 16 6 0 10 -9 10 -21 0
-11 5 -17 10 -14 19 12 12 79 -10 93 -11 7 -20 19 -20 26 0 14 -36 32 -53 28
-4 -1 -10 5 -13 13 -4 8 -15 15 -27 15 -19 0 -20 -1 -2 -20z"/>
<path d="M1141 1044 c-3 -67 83 -137 141 -115 l23 8 -22 7 c-12 4 -24 13 -27
21 -3 8 -13 15 -23 15 -34 0 -81 37 -86 67 -4 28 -4 28 -6 -3z"/>
<path d="M971 764 c0 -11 3 -14 6 -6 3 7 2 16 -1 19 -3 4 -6 -2 -5 -13z"/>
<path d="M1143 755 c0 -8 4 -12 9 -9 5 3 6 10 3 15 -9 13 -12 11 -12 -6z"/>
<path d="M1286 762 c2 -3 -1 -11 -7 -19 -8 -9 -8 -13 -1 -13 16 0 26 20 15 30
-6 4 -8 5 -7 2z"/>
<path d="M1390 756 c7 -7 13 -7 20 0 6 6 3 10 -10 10 -13 0 -16 -4 -10 -10z"/>
<path d="M1563 755 c0 -8 4 -12 9 -9 5 3 6 10 3 15 -9 13 -12 11 -12 -6z"/>
<path d="M1247 697 c-3 -7 3 -13 14 -14 12 -1 16 3 12 13 -6 18 -19 18 -26 1z"/>
<path d="M1205 690 c3 -5 8 -10 11 -10 2 0 4 5 4 10 0 6 -5 10 -11 10 -5 0 -7
-4 -4 -10z"/>
<path d="M1520 690 c-9 -6 -10 -10 -3 -10 6 0 15 5 18 10 8 12 4 12 -15 0z"/>
<path d="M1560 690 c0 -5 5 -10 11 -10 5 0 7 5 4 10 -3 6 -8 10 -11 10 -2 0
-4 -4 -4 -10z"/>
<path d="M1170 619 c0 -5 5 -7 10 -4 6 3 10 8 10 11 0 2 -4 4 -10 4 -5 0 -10
-5 -10 -11z"/>
<path d="M1200 620 c0 -5 5 -10 11 -10 5 0 7 5 4 10 -3 6 -8 10 -11 10 -2 0
-4 -4 -4 -10z"/>
<path d="M1260 619 c0 -5 5 -7 10 -4 6 3 10 8 10 11 0 2 -4 4 -10 4 -5 0 -10
-5 -10 -11z"/>
<path d="M1420 620 c0 -5 5 -10 10 -10 6 0 10 5 10 10 0 6 -4 10 -10 10 -5 0
-10 -4 -10 -10z"/>
<path d="M1719 1933 c-13 -16 -12 -17 4 -4 9 7 17 15 17 17 0 8 -8 3 -21 -13z"/>
<path d="M1727 1889 c-37 -54 -25 -64 17 -15 21 25 35 35 40 28 4 -6 -3 -21
-14 -32 -26 -26 -20 -36 9 -20 26 13 27 48 4 66 -25 18 -24 18 -56 -27z"/>
<path d="M743 1895 c-3 -9 -3 -19 1 -22 3 -4 6 1 6 10 0 10 3 17 8 17 11 0 34
-41 27 -48 -3 -4 -10 0 -15 8 -8 13 -10 12 -10 -2 0 -25 13 -28 37 -8 l22 17
-23 22 c-26 25 -44 27 -53 6z"/>
<path d="M1635 1890 c3 -5 8 -10 11 -10 2 0 4 5 4 10 0 6 -5 10 -11 10 -5 0
-7 -4 -4 -10z"/>
<path d="M692 1858 c-18 -18 -15 -35 9 -52 21 -14 49 -12 49 5 0 4 -6 6 -13 3
-7 -2 -22 4 -32 16 -16 18 -16 20 -2 20 10 0 17 5 17 10 0 14 -13 13 -28 -2z"/>
<path d="M1810 1845 c-13 -14 -20 -28 -17 -32 8 -7 57 35 57 49 0 15 -16 8
-40 -17z"/>
<path d="M1842 1819 c-12 -15 -18 -30 -14 -33 5 -3 18 8 30 24 28 38 14 46
-16 9z"/>
<path d="M620 1830 c0 -5 5 -10 10 -10 6 0 10 5 10 10 0 6 -4 10 -10 10 -5 0
-10 -4 -10 -10z"/>
<path d="M646 1812 c-8 -13 43 -58 53 -46 5 5 -3 18 -19 32 -16 12 -31 18 -34
14z"/>
<path d="M1872 1788 c-16 -16 -15 -47 2 -54 24 -9 58 15 54 39 -3 25 -37 34
-56 15z m48 -5 c0 -10 -32 -43 -42 -43 -15 0 -8 29 10 39 20 12 32 14 32 4z"/>
<path d="M611 1768 c-12 -19 -11 -23 10 -39 13 -10 27 -19 32 -19 14 0 6 18
-15 34 -16 12 -19 18 -10 22 6 3 12 10 12 15 0 16 -15 10 -29 -13z"/>
<path d="M1927 1724 c-15 -14 -24 -30 -20 -37 5 -8 8 -8 11 1 2 7 17 19 33 27
16 9 29 20 29 25 0 18 -25 10 -53 -16z"/>
<path d="M564 1705 c-4 -8 -3 -22 0 -31 7 -19 57 -15 64 6 5 13 3 13 -11 2
-14 -12 -19 -12 -32 1 -19 20 -19 31 0 23 8 -3 15 -1 15 4 0 16 -30 11 -36 -5z"/>
<path d="M527 1653 c-4 -3 -7 -11 -7 -16 0 -6 3 -8 6 -4 4 3 19 0 35 -8 17 -9
30 -11 34 -5 3 5 -8 16 -24 25 -34 17 -35 17 -44 8z"/>
<path d="M501 1601 c-16 -29 -14 -37 15 -50 35 -16 54 -2 20 16 -14 7 -26 18
-26 23 0 14 12 12 37 -5 18 -12 22 -13 26 -1 3 8 -2 16 -11 19 -9 3 -25 8 -34
12 -11 4 -20 0 -27 -14z"/>
<path d="M1987 1603 c-10 -10 -8 -41 3 -48 5 -3 7 0 4 9 -3 9 3 19 16 26 24
13 42 4 20 -10 -8 -5 -11 -12 -7 -16 11 -12 30 13 24 30 -6 16 -48 22 -60 9z"/>
<path d="M2028 1537 c-38 -15 -35 -30 3 -22 22 5 35 3 41 -6 7 -11 8 -9 4 4
-3 10 -6 23 -6 28 0 11 -6 10 -42 -4z"/>
<path d="M478 1513 c-27 -2 -48 -8 -48 -14 0 -9 13 -13 43 -10 9 1 17 -4 17
-11 0 -9 3 -9 8 -2 4 6 15 13 25 17 16 6 25 29 10 25 -5 -1 -29 -3 -55 -5z"/>
<path d="M2070 1470 c0 -5 5 -10 10 -10 6 0 10 -5 10 -11 0 -6 -6 -9 -12 -6
-16 5 -48 -10 -48 -24 0 -10 49 -2 63 11 11 10 -1 50 -14 50 -5 0 -9 -4 -9
-10z"/>
<path d="M487 1449 c12 -12 24 -21 27 -18 2 2 -8 13 -22 23 l-27 19 22 -24z"/>
<path d="M2020 1462 c0 -14 11 -21 26 -15 8 3 11 9 8 14 -7 11 -34 12 -34 1z"/>
<path d="M2048 1393 c-23 -3 -38 -10 -38 -17 0 -10 10 -11 43 -5 23 4 46 4 51
-1 12 -12 -19 -24 -45 -17 -13 3 -19 1 -16 -6 6 -18 63 -21 70 -4 8 21 -3 57
-17 55 -6 -1 -28 -3 -48 -5z"/>
<path d="M430 1381 c0 -10 26 -9 36 2 4 4 -2 7 -14 7 -12 0 -22 -4 -22 -9z"/>
<path d="M487 1367 c-5 -13 -13 -16 -34 -12 -27 6 -27 6 -9 -9 23 -18 26 -19
44 -7 8 5 12 17 10 27 -3 18 -4 18 -11 1z"/>
<path d="M420 1290 c0 -11 -7 -20 -15 -20 -8 0 -15 -4 -15 -10 0 -5 23 -10 50
-10 28 0 50 5 50 10 0 6 -11 10 -24 10 -14 0 -28 5 -31 10 -4 6 7 10 24 10 17
0 31 5 31 10 0 6 -16 10 -35 10 -28 0 -35 -4 -35 -20z"/>
<path d="M2015 1300 c-3 -5 -2 -10 4 -10 5 0 13 5 16 10 3 6 2 10 -4 10 -5 0
-13 -4 -16 -10z"/>
<path d="M2076 1294 c-22 -12 -26 -18 -15 -25 7 -4 16 -4 19 0 3 4 13 10 23
14 9 3 17 11 17 17 0 14 -9 12 -44 -6z"/>
<path d="M390 1219 c0 -5 5 -7 10 -4 6 3 10 8 10 11 0 2 -4 4 -10 4 -5 0 -10
-5 -10 -11z"/>
<path d="M428 1193 c-62 -7 -47 -29 16 -25 42 3 53 7 49 18 -3 8 -10 13 -17
12 -6 -1 -28 -3 -48 -5z"/>
<path d="M1507 494 c-3 -3 -3 -20 0 -37 5 -25 4 -29 -10 -24 -11 4 -17 1 -17
-9 0 -11 6 -13 20 -9 11 4 20 2 20 -4 0 -6 5 -11 11 -11 8 0 9 12 4 38 -8 44
-19 65 -28 56z"/>
<path d="M1022 478 c-17 -17 -15 -55 3 -61 11 -5 13 0 8 24 -4 21 -1 34 8 40
8 5 9 9 4 9 -6 0 -16 -5 -23 -12z"/>
<path d="M1438 468 c4 -15 1 -19 -9 -16 -8 3 -13 11 -11 17 1 6 -2 11 -8 11
-13 0 -7 -93 7 -97 7 -3 9 4 6 18 -4 16 -2 20 8 17 8 -3 13 -13 12 -23 -1 -16
0 -16 15 -2 11 12 13 19 4 30 -6 7 -9 22 -6 34 4 12 0 22 -9 26 -11 4 -13 0
-9 -15z"/>
<path d="M1056 465 c-3 -8 -1 -15 4 -15 6 0 10 7 10 15 0 8 -2 15 -4 15 -2 0
-6 -7 -10 -15z"/>
<path d="M1163 469 c-17 -22 -20 -81 -4 -87 8 -2 11 0 8 6 -4 5 -2 24 4 41 13
37 9 60 -8 40z"/>
<path d="M1265 472 c-15 -11 -13 -102 3 -102 8 0 12 18 12 55 0 30 -1 55 -2
55 -2 0 -7 -4 -13 -8z"/>
<path d="M1328 474 c-16 -16 -8 -56 12 -61 20 -5 20 -7 4 -24 -9 -11 -13 -19
-7 -19 30 0 52 56 37 94 -10 27 -21 18 -16 -14 2 -17 0 -30 -6 -30 -6 0 -12
14 -14 31 -2 17 -6 27 -10 23z"/>
<path d="M1085 460 c-4 -7 -2 -17 4 -23 6 -6 11 -17 11 -25 0 -12 -3 -12 -15
-2 -9 7 -15 8 -15 2 0 -12 29 -24 41 -16 13 8 10 36 -5 57 -10 13 -16 15 -21
7z"/>
<path d="M1196 391 c-4 -5 -2 -12 3 -15 5 -4 12 -2 15 3 4 5 2 12 -3 15 -5 4
-12 2 -15 -3z"/>
</g>
</svg>
