<?xml version="1.0" standalone="no"?>
<!DOCTYPE svg PUBLIC "-//W3C//DTD SVG 20010904//EN"
 "http://www.w3.org/TR/2001/REC-SVG-20010904/DTD/svg10.dtd">
<svg version="1.0" xmlns="http://www.w3.org/2000/svg"
 width="391.000000pt" height="129.000000pt" viewBox="0 0 391.000000 129.000000"
 preserveAspectRatio="xMidYMid meet">

<g transform="translate(0.000000,129.000000) scale(0.100000,-0.100000)"
fill="#000000" stroke="none">
<path d="M120 805 c0 -270 3 -415 10 -415 7 0 10 140 10 400 l0 400 580 0 580
0 0 -245 c0 -212 2 -245 15 -245 13 0 15 33 13 258 l-3 257 -602 3 -603 2 0
-415z"/>
<path d="M2080 975 c0 -202 2 -235 15 -235 13 0 15 33 15 235 0 202 -2 235
-15 235 -13 0 -15 -33 -15 -235z"/>
<path d="M1720 971 l0 -231 93 0 c108 0 149 16 179 71 33 60 8 147 -50 171
-15 7 -29 13 -31 14 -2 2 6 15 18 30 31 40 28 96 -7 136 -28 30 -33 32 -115
36 l-87 5 0 -232z m180 174 c31 -33 32 -87 2 -117 -17 -17 -37 -23 -87 -26
l-65 -4 0 86 0 86 63 0 c55 0 67 -3 87 -25z m49 -199 c25 -24 31 -38 31 -71 0
-78 -53 -115 -165 -115 l-65 0 0 111 0 111 84 -3 c78 -4 87 -6 115 -33z"/>
<path d="M2167 1084 c-9 -10 4 -34 19 -34 8 0 14 9 14 20 0 19 -19 27 -33 14z"/>
<path d="M290 925 l0 -115 110 0 110 0 0 115 0 115 -110 0 -110 0 0 -115z
m190 -5 l0 -90 -85 0 -85 0 0 90 0 90 85 0 85 0 0 -90z"/>
<path d="M630 925 l0 -115 110 0 110 0 0 115 0 115 -110 0 -110 0 0 -115z
m198 -2 l-3 -88 -82 -3 -83 -3 0 91 0 90 85 0 86 0 -3 -87z"/>
<path d="M960 925 l0 -115 110 0 110 0 0 115 0 115 -110 0 -110 0 0 -115z
m198 -2 l-3 -88 -82 -3 -83 -3 0 91 0 90 85 0 86 0 -3 -87z"/>
<path d="M2306 989 c-31 -24 -35 -68 -8 -91 9 -9 38 -25 65 -36 40 -18 47 -25
47 -49 0 -16 -5 -34 -12 -41 -19 -19 -76 -14 -99 9 -13 13 -25 17 -30 12 -18
-18 37 -55 81 -57 34 -1 46 4 66 27 45 52 23 98 -63 132 -45 18 -62 47 -43 70
14 17 76 20 85 5 7 -11 25 -4 25 10 0 8 -54 30 -75 30 -7 0 -24 -9 -39 -21z"/>
<path d="M2530 997 c-60 -30 -46 -100 26 -126 48 -17 74 -38 74 -62 0 -47 -80
-67 -115 -29 -12 13 -22 17 -28 11 -14 -14 8 -38 48 -51 45 -15 102 8 111 44
12 50 -3 75 -64 104 -51 24 -57 30 -57 57 0 27 4 30 33 33 18 2 40 -2 48 -9
11 -9 18 -9 26 -1 9 9 2 15 -25 27 -44 18 -45 18 -77 2z"/>
<path d="M2170 870 c0 -109 2 -130 15 -130 13 0 15 21 15 130 0 109 -2 130
-15 130 -13 0 -15 -21 -15 -130z"/>
<path d="M1088 734 c-16 -8 -28 -19 -28 -25 0 -6 -5 -7 -12 -3 -7 4 -8 3 -4
-4 5 -8 17 -7 41 5 l34 16 175 -131 c97 -73 176 -126 176 -118 0 10 -341 277
-352 276 -2 -1 -15 -8 -30 -16z m53 -11 c13 -17 13 -17 -6 -3 -11 8 -22 16
-24 17 -2 2 0 3 6 3 6 0 17 -8 24 -17z m40 -30 c13 -16 12 -17 -3 -4 -10 7
-18 15 -18 17 0 8 8 3 21 -13z m40 -30 c13 -16 12 -17 -3 -4 -10 7 -18 15 -18
17 0 8 8 3 21 -13z m40 -30 c13 -16 12 -17 -3 -4 -10 7 -18 15 -18 17 0 8 8 3
21 -13z m40 -30 c13 -16 12 -17 -3 -4 -17 13 -22 21 -14 21 2 0 10 -8 17 -17z
m40 -30 c13 -16 12 -17 -3 -4 -10 7 -18 15 -18 17 0 8 8 3 21 -13z m40 -30
c13 -16 12 -17 -3 -4 -17 13 -22 21 -14 21 2 0 10 -8 17 -17z m40 -30 c13 -16
12 -17 -3 -4 -17 13 -22 21 -14 21 2 0 10 -8 17 -17z"/>
<path d="M460 557 l0 -163 -55 -27 c-30 -15 -55 -32 -55 -37 0 -6 -5 -8 -12
-4 -7 4 -8 3 -4 -4 8 -14 126 42 126 59 0 5 4 8 9 5 5 -3 8 66 7 157 l-1 162
40 0 40 0 -3 -132 c-3 -121 -5 -133 -23 -138 -10 -4 -24 -15 -30 -26 -9 -17
-2 -16 50 11 34 17 61 35 61 42 0 6 3 9 6 5 10 -9 146 62 139 73 -7 12 -125
-46 -125 -61 0 -5 -4 -8 -10 -4 -5 3 -18 -3 -30 -15 -11 -11 -21 -20 -22 -20
-2 0 -1 63 0 140 l4 140 -56 0 -56 0 0 -163z"/>
<path d="M967 669 c-32 -16 -55 -34 -52 -39 3 -6 32 3 66 20 33 17 57 35 54
40 -3 6 -7 10 -8 10 -1 -1 -28 -14 -60 -31z"/>
<path d="M827 594 c-37 -19 -65 -39 -62 -44 7 -12 125 46 125 61 0 5 5 7 12 3
7 -4 8 -3 4 4 -4 7 -8 12 -9 12 -1 -1 -33 -17 -70 -36z"/>
<path d="M2540 380 c0 -207 2 -240 15 -240 8 0 15 9 15 20 0 18 2 18 36 -5 43
-29 86 -32 133 -7 53 26 75 63 74 122 -2 116 -128 179 -217 109 l-26 -20 0
130 c0 110 -2 131 -15 131 -13 0 -15 -33 -15 -240z m196 -19 c93 -57 47 -201
-64 -201 -52 0 -102 54 -102 110 0 34 6 48 34 76 40 40 83 45 132 15z"/>
<path d="M2947 613 c-4 -3 -7 -111 -7 -240 0 -200 2 -233 15 -233 13 0 15 33
15 240 0 219 -3 253 -23 233z"/>
<path d="M1730 371 c0 -200 2 -231 15 -231 13 0 15 29 13 227 -2 170 -6 227
-15 231 -10 3 -13 -47 -13 -227z"/>
<path d="M1000 385 l0 -115 110 0 110 0 0 115 0 115 -110 0 -110 0 0 -115z
m205 -3 l0 -102 -95 0 -95 0 0 103 0 102 95 0 95 0 0 -103z"/>
<path d="M3031 486 c-14 -17 -7 -36 14 -36 22 0 29 20 13 36 -13 13 -16 13
-27 0z"/>
<path d="M2850 469 c0 -14 5 -19 17 -17 26 5 29 38 4 38 -15 0 -21 -6 -21 -21z"/>
<path d="M1870 400 c-8 -5 -25 -7 -37 -3 l-23 5 0 -131 c0 -110 2 -131 15
-131 12 0 15 18 15 100 0 87 3 103 20 120 25 25 62 26 83 2 14 -15 17 -40 17
-120 0 -84 3 -102 15 -102 12 0 15 18 15 98 0 111 13 142 59 142 56 0 66 -18
69 -134 3 -72 8 -106 15 -106 9 0 11 32 9 114 -3 100 -6 116 -24 132 -28 26
-99 25 -127 0 -12 -11 -21 -15 -21 -9 0 12 -44 33 -68 33 -9 0 -24 -5 -32 -10z"/>
<path d="M2281 393 c-45 -22 -71 -67 -71 -123 0 -56 27 -101 73 -123 44 -21
80 -21 124 0 46 22 73 67 73 123 0 108 -102 171 -199 123z m117 -27 c73 -38
74 -147 2 -189 -45 -27 -85 -22 -127 16 -31 29 -36 40 -36 77 0 37 5 48 36 77
41 37 80 43 125 19z"/>
<path d="M2863 403 c-10 -3 -13 -40 -13 -134 0 -108 2 -129 15 -129 13 0 15
22 15 135 0 74 -1 135 -2 134 -2 0 -9 -3 -15 -6z"/>
<path d="M3030 273 c0 -112 2 -133 15 -133 13 0 15 21 15 133 0 112 -2 134
-15 134 -13 0 -15 -22 -15 -134z"/>
<path d="M3203 395 c-98 -42 -96 -210 2 -251 47 -19 83 -18 128 6 31 17 37 17
37 5 0 -8 7 -15 15 -15 13 0 15 21 15 130 0 109 -2 130 -15 130 -8 0 -15 -7
-15 -15 0 -19 -3 -19 -42 5 -38 23 -80 25 -125 5z m133 -49 c28 -28 34 -42 34
-76 0 -34 -6 -48 -34 -76 -38 -38 -77 -44 -125 -19 -26 13 -61 67 -61 95 0 26
34 82 59 95 46 25 89 19 127 -19z"/>
<path d="M3477 403 c-4 -3 -7 -64 -7 -135 0 -107 2 -128 15 -128 12 0 15 17
15 94 0 80 3 97 21 120 16 21 28 26 54 24 43 -4 47 14 6 26 -23 7 -37 5 -56
-8 -22 -14 -25 -15 -25 -1 0 16 -12 20 -23 8z"/>
<path d="M3694 396 c-50 -22 -74 -61 -74 -121 0 -96 72 -158 164 -141 47 9
107 63 86 76 -9 6 -21 1 -36 -15 -59 -64 -164 -35 -189 53 -6 22 -6 22 119 22
l126 0 0 29 c0 79 -111 134 -196 97z m116 -31 c26 -13 50 -42 50 -59 0 -3 -47
-6 -105 -6 -68 0 -105 4 -105 11 0 6 13 24 29 40 34 33 83 39 131 14z"/>
<path d="M257 289 c-32 -16 -55 -34 -52 -39 3 -6 32 3 66 20 33 17 57 35 54
40 -3 6 -7 10 -8 10 -1 -1 -28 -14 -60 -31z"/>
<path d="M128 219 c-32 -16 -58 -34 -58 -40 0 -5 -5 -7 -12 -3 -7 4 -8 3 -4
-4 8 -14 126 42 126 59 0 5 5 7 12 3 7 -4 8 -3 4 4 -4 7 -8 12 -9 12 -1 -1
-28 -14 -59 -31z"/>
<path d="M21 160 c-7 -4 -12 -13 -10 -19 3 -8 10 -8 23 2 21 15 9 31 -13 17z"/>
</g>
</svg>
