<?xml version="1.0" standalone="no"?>
<!DOCTYPE svg PUBLIC "-//W3C//DTD SVG 20010904//EN"
 "http://www.w3.org/TR/2001/REC-SVG-20010904/DTD/svg10.dtd">
<svg version="1.0" xmlns="http://www.w3.org/2000/svg"
 width="1200.000000pt" height="630.000000pt" viewBox="0 0 1200.000000 630.000000"
 preserveAspectRatio="xMidYMid meet">

<g transform="translate(0.000000,630.000000) scale(0.100000,-0.100000)"
fill="#000000" stroke="none">
<path d="M1815 3650 c-484 -572 -881 -1045 -883 -1050 -4 -12 677 -14 694 -2
6 4 284 331 619 727 334 396 616 729 627 740 18 20 19 12 16 -420 -3 -434 -3
-441 -25 -482 -31 -56 -85 -108 -139 -130 l-44 -18 0 -232 0 -233 43 0 c68 0
193 36 293 85 168 81 291 222 352 400 l27 80 3 788 3 787 -353 0 -353 0 -880
-1040z"/>
<path d="M3700 3922 c0 -734 1 -772 20 -846 53 -208 176 -354 381 -451 75 -35
185 -67 272 -78 l47 -7 -1 238 0 237 -62 30 c-69 33 -119 90 -137 153 -6 24
-10 294 -10 765 l0 727 -255 0 -255 0 0 -768z"/>
<path d="M10370 3928 c0 -852 0 -840 69 -983 21 -44 57 -103 80 -132 107 -133
317 -239 524 -266 l47 -7 0 238 0 237 -47 19 c-26 11 -66 38 -89 61 -77 77
-74 46 -74 867 l0 728 -255 0 -255 0 0 -762z"/>
<path d="M7210 4418 c-36 -5 -105 -23 -155 -39 -245 -82 -381 -240 -436 -504
-17 -82 -19 -143 -19 -682 l0 -593 255 0 255 0 0 543 c0 598 1 607 61 680 117
142 344 109 423 -63 20 -44 21 -61 24 -602 l3 -558 244 0 245 0 0 548 c0 603
0 601 61 675 103 125 307 116 396 -16 18 -27 37 -65 43 -85 6 -23 10 -241 10
-579 l0 -543 255 0 256 0 -3 623 c-4 699 -2 674 -81 837 -92 190 -278 314
-532 355 -244 40 -424 -11 -570 -163 l-73 -75 -84 77 c-163 151 -333 199 -578
164z"/>
<path d="M4702 3778 c4 -602 4 -614 26 -687 44 -144 105 -244 204 -337 84 -77
171 -127 288 -166 82 -26 114 -31 232 -36 165 -6 279 16 405 77 194 94 312
232 384 446 l24 70 3 623 3 622 -255 0 -255 0 -3 -557 -3 -558 -28 -57 c-103
-211 -368 -209 -483 2 -18 33 -19 69 -24 600 l-5 565 -258 3 -258 2 3 -612z"/>
<path d="M9860 3748 c-80 -95 -193 -230 -252 -300 l-108 -128 0 -360 0 -360
260 0 260 0 0 660 c0 363 -3 660 -7 660 -5 0 -73 -78 -153 -172z"/>
<path d="M2083 2223 c-10 -3 -13 -61 -13 -239 0 -201 2 -234 15 -234 13 0 15
33 15 240 0 132 -1 240 -2 239 -2 0 -9 -3 -15 -6z"/>
<path d="M2513 2223 c-9 -3 -13 -29 -13 -79 0 -41 -3 -74 -7 -74 -5 0 -17 7
-27 15 -27 20 -91 19 -128 -2 -45 -27 -68 -80 -68 -158 0 -117 43 -175 130
-175 32 0 55 6 73 20 25 20 25 20 30 0 3 -11 10 -20 16 -20 8 0 11 73 11 240
0 132 -1 240 -2 239 -2 0 -9 -3 -15 -6z m-73 -153 c5 0 22 -12 39 -26 31 -25
31 -27 31 -119 0 -91 -1 -94 -30 -118 -40 -34 -81 -42 -119 -22 -47 24 -64 65
-59 151 3 64 7 77 32 103 28 29 58 42 84 35 8 -2 17 -4 22 -4z"/>
<path d="M5587 2223 c-4 -3 -7 -111 -7 -240 0 -200 2 -233 15 -233 13 0 15 33
15 240 0 219 -3 253 -23 233z"/>
<path d="M5797 2223 c-4 -3 -7 -111 -7 -240 0 -200 2 -233 15 -233 13 0 15 33
15 240 0 219 -3 253 -23 233z"/>
<path d="M10243 2223 c-9 -3 -13 -30 -13 -84 l0 -79 -32 20 c-64 39 -148 15
-185 -52 -27 -51 -25 -172 4 -219 38 -61 117 -78 181 -39 32 20 32 20 32 0 0
-11 7 -20 15 -20 13 0 15 33 15 240 0 132 -1 240 -2 239 -2 0 -9 -3 -15 -6z
m-40 -175 c26 -19 27 -21 27 -123 0 -100 -1 -104 -26 -124 -40 -32 -91 -37
-122 -14 -61 44 -79 140 -42 221 32 70 97 86 163 40z"/>
<path d="M940 1980 l0 -230 85 0 c169 0 224 28 233 120 5 57 -11 90 -60 119
-28 18 -29 19 -9 26 42 13 63 87 40 139 -20 42 -65 56 -183 56 l-106 0 0 -230z
m245 175 c33 -32 33 -78 1 -110 -28 -28 -70 -37 -151 -33 l-60 3 -3 83 -3 82
96 0 c88 0 98 -2 120 -25z m-40 -175 c83 -19 111 -100 56 -162 -28 -32 -31
-32 -130 -36 l-101 -4 0 99 c0 55 3 103 7 106 9 10 121 8 168 -3z"/>
<path d="M1846 2201 c-3 -5 1 -15 10 -22 13 -10 17 -10 24 1 5 8 6 18 4 22 -7
11 -31 10 -38 -1z"/>
<path d="M2712 2193 c2 -10 10 -18 18 -18 8 0 16 8 18 18 2 12 -3 17 -18 17
-15 0 -20 -5 -18 -17z"/>
<path d="M1422 1949 l3 -151 28 -24 c47 -40 128 -31 169 20 17 21 18 21 18
-11 0 -23 5 -33 15 -33 13 0 15 26 15 175 0 149 -2 175 -15 175 -12 0 -15 -20
-15 -116 0 -132 -13 -175 -63 -201 -24 -12 -37 -13 -67 -4 -52 15 -60 40 -60
191 0 112 -2 130 -16 130 -13 0 -15 -19 -12 -151z"/>
<path d="M1850 1925 c0 -149 2 -175 15 -175 13 0 15 26 15 175 0 149 -2 175
-15 175 -13 0 -15 -26 -15 -175z"/>
<path d="M2714 2087 c-2 -7 -3 -84 -2 -172 2 -116 6 -159 16 -163 9 -3 12 36
12 172 0 114 -4 176 -10 176 -6 0 -13 -6 -16 -13z"/>
<path d="M2922 1928 c2 -126 6 -172 16 -176 9 -3 12 23 12 107 0 156 28 211
106 211 80 0 94 -29 94 -195 0 -107 2 -125 16 -125 13 0 15 18 12 146 l-3 146
-34 30 c-30 27 -39 30 -83 26 -36 -4 -57 -13 -78 -33 l-30 -29 0 32 c0 22 -5
32 -15 32 -13 0 -15 -23 -13 -172z"/>
<path d="M3391 2075 c-61 -52 -79 -181 -37 -263 31 -60 112 -80 174 -42 41 25
42 25 42 -7 0 -40 -34 -91 -74 -110 -20 -9 -32 -21 -29 -29 6 -17 48 -2 82 29
45 41 51 74 51 267 0 153 -2 180 -15 180 -8 0 -15 -9 -15 -20 0 -20 0 -20 -32
0 -47 29 -109 26 -147 -5z m144 -24 c30 -17 30 -18 33 -115 3 -90 1 -101 -19
-122 -59 -63 -144 -49 -174 30 -22 58 -17 145 12 184 40 54 83 61 148 23z"/>
<path d="M4049 2073 c-42 -36 -59 -79 -59 -153 0 -109 50 -170 140 -170 41 0
100 23 100 39 0 18 -13 18 -48 0 -44 -23 -55 -23 -97 -3 -34 16 -65 65 -65
103 0 20 5 21 120 21 l120 0 0 38 c-1 53 -33 118 -69 136 -48 25 -104 21 -142
-11z m117 -8 c35 -15 64 -61 64 -105 0 -19 -6 -20 -106 -20 l-107 0 6 36 c7
39 38 81 72 94 28 12 31 12 71 -5z"/>
<path d="M4400 2095 c0 -3 21 -41 46 -85 l47 -80 -52 -86 c-28 -47 -51 -87
-51 -90 0 -2 7 -4 15 -4 8 0 34 34 57 75 24 41 45 74 48 75 3 0 22 -32 43 -71
34 -63 59 -90 73 -77 3 3 -18 43 -46 89 -27 46 -50 87 -50 91 0 4 20 41 45 81
50 82 51 87 31 87 -8 0 -31 -29 -51 -65 -20 -36 -40 -65 -45 -65 -4 0 -25 29
-45 65 -20 36 -43 65 -50 65 -8 0 -15 -2 -15 -5z"/>
<path d="M4837 2083 c-92 -59 -89 -270 5 -319 38 -20 122 -15 145 9 27 26 6
36 -34 16 -82 -42 -153 21 -153 136 0 59 9 85 43 123 25 26 91 30 124 7 15
-11 24 -12 29 -4 23 38 -108 65 -159 32z"/>
<path d="M5218 2083 c-44 -28 -70 -86 -70 -157 0 -109 51 -176 135 -176 48 0
114 27 101 40 -7 7 -23 5 -49 -6 -74 -31 -155 21 -155 99 l0 27 120 0 120 0 0
37 c0 49 -33 115 -69 136 -37 21 -98 22 -133 0z m106 -17 c34 -14 66 -65 66
-105 0 -20 -5 -21 -106 -21 l-107 0 6 36 c7 39 38 81 72 94 28 12 31 12 69 -4z"/>
<path d="M6058 2084 c-64 -34 -92 -169 -55 -256 30 -70 117 -98 194 -62 48 23
27 37 -27 17 -41 -14 -48 -14 -82 0 -37 15 -59 47 -72 100 l-6 27 126 0 127 0
-6 50 c-7 60 -30 101 -67 124 -35 20 -96 20 -132 0z m119 -26 c24 -12 53 -64
53 -97 0 -20 -5 -21 -109 -21 l-109 0 7 33 c21 90 81 123 158 85z"/>
<path d="M6410 1925 c0 -137 3 -176 13 -173 8 3 14 42 17 129 7 162 22 189
109 189 31 0 44 -6 60 -26 19 -24 21 -40 21 -160 0 -112 2 -134 15 -134 21 0
22 258 1 299 -27 52 -105 67 -163 31 -18 -11 -34 -25 -34 -32 -1 -7 -4 0 -8
16 -3 16 -12 31 -18 34 -10 3 -13 -36 -13 -173z"/>
<path d="M6883 2080 c-48 -29 -67 -73 -67 -155 0 -110 39 -165 122 -173 66 -6
138 31 103 53 -5 3 -12 1 -16 -4 -3 -6 -22 -15 -42 -20 -48 -14 -96 7 -119 51
-36 69 -16 200 35 228 28 15 93 12 117 -5 20 -14 34 -11 34 6 0 16 -59 39 -97
39 -21 0 -52 -9 -70 -20z"/>
<path d="M7263 2081 c-84 -53 -97 -212 -23 -294 26 -30 33 -32 94 -32 48 0 70
4 83 17 20 21 9 37 -15 21 -75 -46 -158 -7 -177 85 l-7 32 126 0 c124 0 126 0
126 23 0 42 -21 98 -49 129 -36 41 -109 49 -158 19z m135 -34 c18 -17 42 -72
42 -99 0 -5 -49 -8 -110 -8 -123 0 -121 -1 -90 68 32 70 104 88 158 39z"/>
<path d="M7912 2080 c-88 -55 -97 -229 -15 -300 27 -24 43 -30 79 -30 46 0
104 23 104 40 0 14 -7 13 -58 -7 -40 -15 -46 -15 -77 0 -39 19 -62 49 -71 95
l-6 32 127 0 127 0 -7 47 c-14 92 -50 134 -122 140 -36 3 -56 -1 -81 -17z
m136 -33 c18 -17 42 -72 42 -99 0 -5 -50 -8 -111 -8 l-111 0 8 32 c20 95 108
133 172 75z"/>
<path d="M8240 2093 c0 -5 28 -84 62 -176 45 -124 65 -167 76 -165 10 2 37 62
73 163 61 168 67 189 47 183 -7 -3 -35 -68 -63 -145 -27 -78 -53 -144 -56
-147 -3 -4 -30 61 -59 144 -33 97 -57 150 -66 150 -8 0 -14 -3 -14 -7z"/>
<path d="M8704 2082 c-45 -29 -68 -84 -68 -162 0 -106 51 -170 137 -170 48 0
113 28 98 43 -6 6 -22 4 -48 -8 -68 -33 -137 9 -158 98 l-7 27 126 0 126 0 0
26 c0 46 -22 102 -51 130 -38 36 -111 44 -155 16z m130 -31 c20 -17 46 -71 46
-96 0 -13 -18 -15 -110 -15 l-110 0 6 28 c24 97 104 137 168 83z"/>
<path d="M9070 1925 c0 -145 2 -175 14 -175 12 0 15 26 18 135 4 157 12 173
92 182 59 7 65 33 7 33 -28 0 -49 -8 -70 -26 l-31 -26 0 26 c0 16 -6 26 -15
26 -13 0 -15 -26 -15 -175z"/>
<path d="M9350 2091 c0 -6 27 -86 61 -178 l61 -166 -21 -54 c-25 -65 -25 -63
-7 -63 8 0 35 60 71 158 32 86 71 192 86 235 25 66 27 78 13 75 -12 -2 -33
-49 -68 -145 -29 -78 -54 -145 -58 -148 -3 -3 -18 29 -34 72 -61 171 -80 217
-92 221 -6 2 -12 -1 -12 -7z"/>
<path d="M10467 2088 c-45 -16 -22 -25 55 -20 65 4 75 2 92 -16 10 -12 21 -42
24 -68 5 -46 4 -47 -19 -40 -127 37 -209 1 -209 -91 0 -36 6 -50 29 -74 24
-24 38 -29 78 -29 30 0 60 7 81 20 40 25 42 25 42 -1 0 -12 5 -19 13 -17 16 6
22 229 7 280 -7 25 -20 43 -40 53 -33 17 -111 19 -153 3z m121 -163 c51 -15
52 -16 52 -54 0 -31 -6 -44 -30 -64 -71 -60 -170 -37 -170 39 0 48 9 65 44 80
40 17 42 17 104 -1z"/>
<path d="M10810 2089 c0 -8 27 -87 61 -177 l61 -164 -21 -55 c-25 -65 -25 -63
-8 -63 13 0 177 426 177 458 0 8 -5 12 -12 10 -7 -3 -35 -68 -63 -146 -28 -78
-54 -144 -57 -147 -6 -6 -11 6 -75 184 -21 57 -44 106 -50 109 -7 2 -13 -2
-13 -9z"/>
</g>
</svg>
