<svg width="191" height="4" viewBox="0 0 191 4" fill="none" xmlns="http://www.w3.org/2000/svg">
<path d="M84.126 3.66713C87.4175 3.70627 90.709 3.76497 94.1002 3.8041C102.977 3.92151 179.978 4.19546 188.357 3.39318C191.349 3.09966 189.753 2.1017 186.661 2.12127C186.162 2.12127 185.664 2.12127 185.165 2.12127C185.664 1.76905 184.966 1.53423 182.971 1.41682C184.567 1.41682 186.262 1.41682 187.858 1.43639C192.047 1.45596 192.047 0.0862081 187.858 0.0666403C148.859 -0.0899028 42.1344 0.0275048 3.23482 0.43843C-0.25617 0.477566 -1.45308 1.65164 2.33713 1.78861C8.32168 2.00386 14.3062 2.00386 20.2908 2.19954C19.5926 2.29738 19.1936 2.45392 18.9941 2.61046C18.5952 2.61046 18.1962 2.63003 17.897 2.63003C13.7078 2.7083 13.608 4.01935 17.897 3.99978C39.94 3.88238 62.0829 3.76497 84.126 3.66713Z" fill="#FFBD13"/>
</svg>
